<?xml version="1.0" encoding="UTF-8" standalone="no"?>
<!-- Created with Inkscape (http://www.inkscape.org/) -->

<svg
   xmlns:dc="http://purl.org/dc/elements/1.1/"
   xmlns:cc="http://creativecommons.org/ns#"
   xmlns:rdf="http://www.w3.org/1999/02/22-rdf-syntax-ns#"
   xmlns:svg="http://www.w3.org/2000/svg"
   xmlns="http://www.w3.org/2000/svg"
   version="1.1"
   width="412.19089"
   height="390.17444"
   id="svg8906">
  <defs
     id="defs8908" />
  <metadata
     id="metadata8911">
    <rdf:RDF>
      <cc:Work
         rdf:about="">
        <dc:format>image/svg+xml</dc:format>
        <dc:type
           rdf:resource="http://purl.org/dc/dcmitype/StillImage" />
        <dc:title></dc:title>
      </cc:Work>
    </rdf:RDF>
  </metadata>
  <g
     transform="translate(-595.16246,-43.225896)"
     id="layer1">
    <path
       d="m 844.886,182.59561 c -1.6558,-1.0233 -0.6916,-4.0437 1.2909,-4.0437 0.7834,0 1.6708,0.6421 1.972,1.4269 0.7256,1.8911 -1.5213,3.6932 -3.2629,2.6168 z m -91.4043,112.5293 c -0.7256,-1.8911 1.5213,-3.6932 3.2629,-2.6168 1.6558,1.0233 0.6916,4.0437 -1.2909,4.0437 -0.7834,0 -1.6708,-0.6421 -1.972,-1.4269 z m 37.109,-81.073 c 6.8379,-27.0459 3.7266,-65.6739 -7.0042,-86.9593 l -3.2712,-6.4887 0,15.224 c 0,17.2197 -1.7878,25.9937 -8.0269,39.4974 -8.5206,18.4419 -25.1396,35.2231 -43.9442,44.3731 l -7.9751,3.8806 33.9751,-0.2635 33.9752,-0.2636 2.2754,-9 z m -79.7754,7.3424 c 39.3661,-9.9108 68.2461,-49.6346 65.6808,-90.3424 -2.5203,-39.995103 -30.1737,-72.291103 -70.2692,-82.066403 -9.1325,-2.2266 -27.5997,-2.2785 -36.6117,-0.103 -34.1087,8.234 -58.8743,32.163 -67.9652,65.669403 -2.9753,10.966 -3.2519,31.0058 -0.5638,40.8381 5.1132,18.7023 11.7502,30.3122 24.6742,43.1619 13.2771,13.2008 27.4785,20.9266 45.0549,24.5104 8.6279,1.7592 29.9126,0.8717 40,-1.668 z m 102.9519,16.5192 c 2.2265,-4.7512 4.0481,-8.8012 4.0481,-9 0,-0.1989 -5.8284,-0.3616 -12.9519,-0.3616 l -12.9519,0 -4.0481,8.6384 c -2.2265,4.7512 -4.0481,8.8012 -4.0481,9 0,0.1989 5.8284,0.3616 12.9519,0.3616 l 12.9519,0 4.0481,-8.6384 z m 8.3171,103.3701 c -0.2637,-16.2879 1.3875,-25.3805 6.8809,-37.8902 5.7152,-13.0149 18.6044,-28.8629 31.3501,-38.5468 4.1383,-3.1441 16.3712,-9.5975 22.5,-11.8697 2.9627,-1.0983 -2.1037,-1.2689 -33,-1.1113 l -36.5,0.1863 -2.2754,9 c -6.9127,27.3419 -3.7317,65.6427 7.2655,87.4803 1.9443,3.8608 3.6419,7.0201 3.7725,7.0205 0.1306,5e-4 0.1334,-6.4206 0.01,-14.2691 z m 114.7262,85.284 c 32.0908,-9.2422 54.1383,-30.9822 63.6148,-62.7274 2.2909,-7.6741 2.6223,-10.5633 2.6146,-22.7883 -0.011,-16.5717 -1.7944,-24.6715 -8.5571,-38.8542 -15.0377,-31.5367 -47.8025,-51.405 -82.6675,-50.1289 -13.2794,0.4861 -23.5889,3.1579 -36.5,9.4592 -21.6136,10.5487 -38.3036,30.1373 -46.0296,54.0239 -2.4709,7.639 -2.7592,10.0193 -2.8466,23.5 -0.084,12.8964 0.2342,16.1921 2.2658,23.5 9.2328,33.2119 35.0392,57.9045 68.0552,65.1178 11.4043,2.4917 29.2804,1.9997 40.0504,-1.1021 z m -38.4952,5.8313 c -18.4929,-3.4372 -33.4293,-11.0786 -47.0525,-24.072 -12.6899,-12.1033 -21.8364,-26.3466 -25.3813,-39.525 -0.6288,-2.3375 -1.7163,-4.25 -2.4167,-4.25 -2.9128,0 -10.0161,-13.0108 -14.6427,-26.8203 -8.1575,-24.3485 -8.7089,-55.1751 -1.4924,-83.4297 l 0.7024,-2.75 -15.6398,0 c -17.2899,0 -18.5022,-0.4682 -14.7959,-5.7145 1.0823,-1.532 3.5919,-6.0219 5.5767,-9.9774 l 3.6088,-7.1919 -58.7333,-0.3776 c -65.9469,-0.4239 -62.6529,-0.084 -79.957,-8.2398 -25.2962,-11.9219 -43.2085,-33.4018 -50.4503,-60.4988 -3.2758,-12.2568 -3.31,-34.7842 -0.072,-47 6.8502,-25.838903 24.939,-48.129503 48.5387,-59.813703 14.2649,-7.0625 24.7902,-9.4921 41.2068,-9.5122 20.4161,-0.025 35.1887,4.1891 51.2834,14.629 16.6831,10.8215 31.5453,29.6537 37.2321,47.177503 0.7105,2.1893 2.5964,5.2851 4.1909,6.8796 1.5944,1.5945 4.4647,6.0081 6.3783,9.8079 13.8522,27.5068 16.7857,64.2954 7.9009,99.0819 l -0.7024,2.75 15.6398,0 c 17.2899,0 18.5022,0.4682 14.7959,5.7145 -1.0823,1.532 -3.605,6.048 -5.606,10.0355 l -3.638,7.25 48.5925,0 c 38.351,0 51.1575,0.3313 60.7625,1.5718 24.29,3.1371 42.2347,11.861 57.7314,28.0667 8.1155,8.4867 11.9077,13.9941 16.94,24.6021 5.9426,12.5267 8.1088,22.029 8.4937,37.2594 0.7113,28.1468 -7.2461,48.2052 -26.995,68.0471 -14.6288,14.6977 -28.6842,22.2885 -48.175,26.0177 -8.2723,1.5828 -26.0305,1.7309 -33.825,0.2822 z"
       id="path6281"
       style="fill:#000000;fill-opacity:1;stroke:none;display:inline" />
  </g>
</svg>
