<?xml version="1.0" encoding="UTF-8" standalone="no"?>
<!-- Created with Inkscape (http://www.inkscape.org/) -->

<svg
   xmlns:dc="http://purl.org/dc/elements/1.1/"
   xmlns:cc="http://creativecommons.org/ns#"
   xmlns:rdf="http://www.w3.org/1999/02/22-rdf-syntax-ns#"
   xmlns:svg="http://www.w3.org/2000/svg"
   xmlns="http://www.w3.org/2000/svg"
   version="1.1"
   width="420.35065"
   height="421.0004"
   id="svg8906">
  <defs
     id="defs8908" />
  <metadata
     id="metadata8911">
    <rdf:RDF>
      <cc:Work
         rdf:about="">
        <dc:format>image/svg+xml</dc:format>
        <dc:type
           rdf:resource="http://purl.org/dc/dcmitype/StillImage" />
        <dc:title></dc:title>
      </cc:Work>
    </rdf:RDF>
  </metadata>
  <g
     transform="translate(-54.841991,177.05157)"
     id="layer1">
    <path
       d="m 263.75787,-111.32297 c -1.4346,-1.7286 0.1627,-4.1912 2.2092,-3.4059 1.9617,0.7528 2.0474,2.0616 0.2336,3.567 -1.0299,0.8547 -1.6328,0.8149 -2.4428,-0.1611 z m 83.0005,61.521203 c 0.1853,-0.9625 0.9997,-1.75 1.8096,-1.75 0.8099,0 1.6243,0.7875 1.8096,1.75 0.2365,1.2278 -0.3035,1.75 -1.8096,1.75 -1.5061,0 -2.0461,-0.5222 -1.8096,-1.75 z m -166.69044,0.75 c -0.837,-1.3544 0.2924,-3 2.059,-3 0.7926,0 1.441,0.9 1.441,2 0,2.0703 -2.4125,2.759601 -3.5,1 z m 228.61014,83.632701 c -0.8547,-1.0299 -0.8149,-1.6328 0.1611,-2.4428 1.7286,-1.4346 4.1912,0.1627 3.4059,2.2092 -0.7528,1.9617 -2.0616,2.0474 -3.567,0.2336 z m -291.11014,-0.6327 c 0,-1.5061 0.5222,-2.0461 1.75,-1.8096 0.9625,0.1853 1.75,0.9997 1.75,1.8096 0,0.8099 -0.7875,1.6243 -1.75,1.8096 -1.2278,0.2365 -1.75,-0.3035 -1.75,-1.8096 z m 228.19044,82.249996 c 0.1853,-0.9625 0.9997,-1.75 1.8096,-1.75 0.8099,0 1.6243,0.7875 1.8096,1.75 0.2365,1.2278 -0.3035,1.75 -1.8096,1.75 -1.5061,0 -2.0461,-0.5222 -1.8096,-1.75 z m -165.81694,1.281 c -0.8734,-2.2761 0.5421,-3.8459 2.2155,-2.4571 1.8275,1.5167 1.7871,2.5678 -0.1269,3.3023 -0.8626,0.331 -1.7796,-0.04 -2.0886,-0.8452 z m 82.81474,61.73051 c 0.502,-2.6068 3.8118,-2.8975 3.8118,-0.3348 0,1.4311 -0.6422,2.0733 -2.0733,2.0733 -1.4311,0 -1.9696,-0.5385 -1.7385,-1.7385 z m -2.9572,-232.129807 c 2.6251,-0.6072 1.9612,-1.4268 -17.11684,-21.1317 l -19.8479,-20.5 -1.2177,6 c -2.6435,13.0256 -7.4788,26.0824 -12.022,32.4626 -1.0821,1.5197 -1.6808,3.0499 -1.3304,3.4003 0.8178,0.8178 47.91324,0.6065 51.53484,-0.2312 z m 121.5288,55.3773007 11.2599,-10.996 -11.2599,-2.7114997 c -7.5145,-1.8096 -14.4522,-4.3203 -20.8575,-7.5481 l -9.5977,-4.8367 -0.6335,20.3634997 c -0.3484,11.1999 -0.3479,23.7410003 10e-4,27.8692003 l 0.6345,7.5058 9.5967,-9.3252 c 5.2782,-5.1288 14.6636,-14.2733003 20.8565,-20.3210003 z M 179.56793,63.364934 c 0,-16.9133 -0.3745,-28.4473 -0.9173,-28.25 -1.3113,0.4765 -42.0828,39.8862 -42.0821,40.6765 3e-4,0.3612 3.9378,1.439 8.75,2.395 10.1623,2.0188 21.6297,6.2332 28.7494,10.5657 2.75,1.6734 5.1125,3.0771 5.25,3.1193 0.1375,0.042 0.25,-12.7857 0.25,-28.5065 z m 100.24964,48.993096 c 15.8642,-2.7271 28.782,-9.4257 41.0896,-21.307296 16.069,-15.5127 24.6919,-36.1024 24.6477,-58.8529 -0.072,-36.9985003 -27.3519,-70.5892 -63.2314,-77.8593 -8.3846,-1.6989 -22.4311,-1.5109 -36.2555,0.4854 -22.16094,3.2 -46.82754,24.3094 -56.43104,48.2929997 -3.6361,9.0807003 -4.142,11.9464003 -4.7827,27.0913003 -1.034,24.44 6.9564,45.2156 23.397,60.8342 19.6769,18.693096 44.24844,26.011596 71.56634,21.315596 z m 31.7043,29.5902 c 1.0928,-3.575 3.7905,-10.0722 5.9949,-14.4382 2.2045,-4.366 3.8604,-8.0859 3.68,-8.2664 -0.1805,-0.1804 -12.5138,-0.2082 -27.4073,-0.062 l -27.0792,0.2663 20.1214,20.8519 20.1213,20.8519 1.291,-6.3519 c 0.71,-3.4936 2.1851,-9.2769 3.2779,-12.8519 z m 12.1756,98.49471 c -4.2676,-4.8605 -10.641,-18.6173 -13.7603,-29.7012 -2.2282,-7.9175 -2.6873,-11.9018 -3.101,-26.91 l -0.4857,-17.61651 -23.6412,-23.6204 -23.6413,-23.6205 -28.98674,-0.2631 c -26.6903,-0.2422 -29.0133,-0.4016 -29.3233,-2.013 -0.3105,-1.6141 1.0862,-1.7531 17.9867,-1.7894 l 18.3233,-0.039 -8.7211,-4.3187 c -18.7503,-9.2851 -32.033,-22.450496 -40.4598,-40.102596 l -3.8191,-8 -0.2726,18.25 c -0.1558,10.432 -0.6722,18.25 -1.2056,18.25 -0.5131,0 -3.4123,-1.7368 -6.4426,-3.8595 -9.0283,-6.3244 -26.1862,-12.3673 -39.1187,-13.7775 l -5.6846,-0.6199 -19.2758,19.2568 C 94.472427,117.52663 90.567927,120.55963 90.567927,116.64963 c 0,-0.6494 7.9875,-9.2243 17.750003,-19.055296 l 17.75,-17.8745 -11.5,0.6127 c -13.2203,0.7044 -15.688803,1.052 -26.143803,3.6817 -9.3857,2.3608 -19.6623,6.8889 -26.0512,11.4789 -5.1228,3.6804 -6.3072,4.0699 -7.3321,2.4116 -2.4246,-3.9232 17.7848,-14.8145 35.5271,-19.1463 5.944,-1.4512 13.154703,-2.2241 23.979403,-2.5703 l 15.4794,-0.4951 24.7982,-24.0535 24.7982,-24.0535 -0.087,-28.4597003 c -0.052,-17.2148997 0.2974,-28.8436997 0.8853,-29.4315997 2.528,-2.528 3.1483,0.8547 3.2203,17.5628 l 0.074,17.1909997 2.844,-6.17 c 4.245,-9.2095997 9.5477,-17.0237997 16.3864,-24.1475997 7.8504,-8.1776 13.985,-12.6455 24.5923,-17.9108 l 8.5291,-4.233701 -17.2814,-0.019 c -14.679,-0.016 -17.371,-0.2525 -17.8765,-1.5699 -0.3308,-0.862 0.2993,-2.5277 1.4184,-3.75 5.6915,-6.2159 13.1097,-24.7816 15.2316,-38.1204 l 1.101,-6.9213 -19.7007,-19.790503 c -17.2424,-17.3211 -19.5348,-19.9904 -18.3713,-21.3923 1.1732,-1.4136 3.2706,0.3151 17.8487,14.7118 9.0857,8.9725 17.1323,17.1011 17.8815,18.0636 2.4684,3.1714 3.2489,1.8425 3.2304,-5.5 -0.052,-20.6099 -6.1234,-43.0851 -15.4235,-57.0964 -4.0358,-6.0801 -4.3761,-7.6536 -1.6554,-7.6536 3.5153,0 12.7752,16.4043 16.4068,29.0656 3.1976,11.1482 4.6904,22.3318 4.6904,35.14 l 0,12.984703 13.7975,14.1548 c 7.5887,7.7852 17.91974,18.4299 22.95794,23.6549 l 9.1603,9.5 30.2922,0.5 c 26.0374,0.4298 30.2921,0.7107 30.2921,2 0,1.2593 -2.8889,1.5802 -18,2 l -18,0.5 8,3.819101 c 17.2844,8.2513 30.7488,21.6592 39.5885,39.4224997 l 3.8609,7.7584 0.025,-15.6681997 c 0.025,-15.5364 0.4,-18.8318 2.1425,-18.8318 0.4968,0 3.0992,1.5434 5.783,3.4298 8.5513,6.0106 25.5145,12.1968 38.5059,14.0425 l 4.9061,0.6971 19.7793,-19.7608 c 17.4624,-17.446001 19.9701,-19.602401 21.4082,-18.408901 1.4488,1.2024 -0.3678,3.3507 -16.4354,19.436001 -9.9354,9.9462 -18.0643,18.4171 -18.0643,18.8242 0,1.2435 13.9319,0.8139 24.3035,-0.7494 15.4421,-2.3276 32.4674,-8.8289 43.919,-16.7709 1.3382,-0.9281 1.9934,-0.9237 2.9367,0.02 2.0233,2.0233 -2.5453,5.7869 -13.5989,11.2028 -15.4987,7.5937 -26.6221,10.1664997 -46.5947,10.7770997 l -16.5344,0.5055 -23.9656,23.4860003 -23.9656,23.486 -0.2646,29.0107 c -0.1455,15.956 -0.523,29.4291 -0.839,29.9403 -0.3361,0.5439 -1.1598,0.4437 -1.9854,-0.2415 -1.1141,-0.9246 -1.4112,-4.775 -1.4118,-18.2985 l -8e-4,-17.1276 -3.0413,6.4289 c -9.1514,19.3443 -22.9462,33.009996 -42.8341,42.433096 l -6.623,3.138 17.4746,0.2746 c 9.611,0.151 17.8607,0.6607 18.3326,1.1326 0.4775,0.4775 -0.7203,3.0551 -2.7,5.8107 -6.7627,9.4131 -12.3923,24.6427 -14.2299,38.4958 l -0.6611,4.9834 19.2859,19.30501 c 13.7748,13.7885 19.1109,19.7612 18.6733,20.9014 -0.337,0.8781 -0.9691,1.5965 -1.4047,1.5965 -0.4357,0 -8.6575,-7.875 -18.2707,-17.5 -9.6132,-9.625 -17.8209,-17.5 -18.2393,-17.5 -1.0596,0 -0.9356,11.8324 0.2306,22 1.9106,16.6592 6.327,29.6762 14.149,41.704 3.6387,5.5951 4.2586,8.296 1.9043,8.296 -0.4606,0 -2.2224,-1.5774 -3.9151,-3.5053 z"
       id="path5773"
       style="fill:#000000;fill-opacity:1;stroke:none;display:inline" />
  </g>
</svg>
