<?xml version="1.0" encoding="UTF-8" standalone="no"?>
<!-- Created with Inkscape (http://www.inkscape.org/) -->

<svg
   xmlns:dc="http://purl.org/dc/elements/1.1/"
   xmlns:cc="http://creativecommons.org/ns#"
   xmlns:rdf="http://www.w3.org/1999/02/22-rdf-syntax-ns#"
   xmlns:svg="http://www.w3.org/2000/svg"
   xmlns="http://www.w3.org/2000/svg"
   version="1.1"
   width="256.0004"
   height="499.75363"
   id="svg8906">
  <defs
     id="defs8908" />
  <metadata
     id="metadata8911">
    <rdf:RDF>
      <cc:Work
         rdf:about="">
        <dc:format>image/svg+xml</dc:format>
        <dc:type
           rdf:resource="http://purl.org/dc/dcmitype/StillImage" />
        <dc:title></dc:title>
      </cc:Work>
    </rdf:RDF>
  </metadata>
  <g
     transform="translate(-218.71875,-96.404822)"
     id="layer1">
    <path
       d="m 344.46905,227.07835 c -4.363,-2.54124 -0.2084,-9.30595 4.25,-6.9199 2.5791,1.38029 2.6189,5.5984 0.066,6.96482 -2.302,1.23201 -2.1201,1.2339 -4.3157,-0.0449 z m 0,245 c -3.5114,-2.04521 -1.2024,-7.9199 3.1128,-7.9199 1.451,0 4.1372,2.92183 4.1372,4.5 0,1.68335 -2.7335,4.51056 -4.3214,4.46959 -0.6482,-0.0167 -1.9661,-0.48908 -2.9286,-1.04969 z m -123.1786,122.50867 c -0.8643,-0.86428 -1.5697,-2.10178 -1.5677,-2.75 0.01,-1.69152 3.7986,-7.67857 4.865,-7.67857 0.4939,0 1.1724,-0.7875 1.5077,-1.75 0.3354,-0.9625 1.9393,-3.775 3.5644,-6.25 3.0128,-4.58874 8.9931,-16.09439 8.836,-17 -0.048,-0.275 0.6633,-1.95047 1.5801,-3.72326 4.9241,-9.52214 11.1804,-32.24714 14.2543,-51.77674 2.6356,-16.74437 2.6616,-52.95613 0.05,-70 -2.7283,-17.80774 -9.7547,-43.80052 -14.1917,-52.5 -0.7013,-1.375 -2.9125,-5.875 -4.9137,-10 -4.8871,-10.07335 -9.7377,-17.65965 -13.4727,-21.07102 -1.6959,-1.54893 -3.0834,-3.09619 -3.0834,-3.43835 0,-1.62722 2.2235,-4.49063 3.4871,-4.49063 1.3727,0 7.5129,-7.96175 7.5129,-9.74161 0,-0.4847 0.8004,-1.75362 1.7786,-2.81983 1.6369,-1.78421 3.4745,-5.33437 9.026,-17.43856 2.6914,-5.86814 6.1859,-15.58478 7.1928,-20 0.439,-1.925 1.5227,-5.81568 2.4082,-8.64595 0.8856,-2.83027 2.7277,-11.60527 4.0938,-19.5 2.2116,-12.78142 2.4846,-17.20702 2.4921,-40.3943 0.01,-23.49067 -0.2412,-27.456 -2.5421,-40.5 -3.7102,-21.0341 -8.8791,-37.78442 -16.467,-53.36288 -5.9614,-12.23914 -7.3016,-14.52063 -12.74,-21.68774 -2.3333,-3.07498 -4.2424,-6.54664 -4.2424,-7.71482 0,-2.705229 3.3502,-4.624849 5.75,-3.294619 2.8193,1.56281 105.25,104.530069 105.25,105.801349 0,1.7031 -2.8933,4.29896 -4.7916,4.29896 -0.9069,0 -19.121,-17.4375 -40.4759,-38.75 -21.355,-21.3125 -38.511,-37.85 -38.1246,-36.75 0.3864,1.1 1.0552,2.46297 1.4862,3.02882 1.9585,2.57123 10.4725,29.68605 11.2949,35.97118 0.2159,1.65 1.3417,8.1412 2.5018,14.42489 1.8208,9.86281 2.1092,15.2231 2.1092,39.20447 0,25.45195 -0.2127,28.93548 -2.538,41.5751 -2.5953,14.10751 -5.2132,24.5398 -8.6061,34.29554 -1.052,3.025 -1.8334,5.725 -1.7365,6 0.097,0.275 -0.7994,2.4125 -1.9919,4.75 -1.1925,2.3375 -1.9122,4.25 -1.5993,4.25 0.3129,0 17.6487,-17.1 38.5241,-38 20.8753,-20.9 38.603,-38 39.3947,-38 1.4848,0 4.553,3.67159 4.553,5.44845 0,0.55188 -21.7062,22.72676 -48.2361,49.27749 l -48.2357,48.27406 111.0694,0 c 61.0881,0 111.385,-0.31562 111.7707,-0.70138 0.3858,-0.38575 -20.6892,-22.10919 -46.8333,-48.2743 -26.1441,-26.16511 -47.5347,-48.31735 -47.5347,-49.2272 0,-1.89857 2.5924,-4.79712 4.2905,-4.79712 0.6311,0 17.9698,16.7625 38.5304,37.25 20.5605,20.4875 36.7086,35.9 35.8846,34.25 -0.8241,-1.65 -1.448,-3.225 -1.3865,-3.5 0.062,-0.275 -0.8331,-3.2 -1.9879,-6.5 -3.5574,-10.16508 -6.1471,-20.41283 -8.7931,-34.79554 -2.3253,-12.63962 -2.538,-16.12315 -2.538,-41.5751 0,-23.98137 0.2884,-29.34166 2.1092,-39.20447 1.1601,-6.28369 2.2859,-12.77489 2.5018,-14.42489 0.8989,-6.86956 9.3559,-33.37384 11.6373,-36.47118 0.6194,-0.84085 -15.7346,15.23368 -36.3421,35.72118 -20.6075,20.4875 -38.2096,37.25 -39.1157,37.25 -2.0487,0 -4.7905,-2.6455 -4.7905,-4.62224 0,-0.81366 21.4875,-23.03585 47.75,-49.38265 26.2625,-26.3468 49.325,-49.74114 51.25,-51.98741 4.1816,-4.879499 7.2948,-5.955839 10.0403,-3.471229 2.9121,2.635399 2.4681,4.045689 -3.1407,9.976139 -5.8477,6.18314 -7.1325,8.22696 -13.882,22.08426 -7.5879,15.57846 -12.7568,32.32878 -16.467,53.36288 -2.3009,13.044 -2.5498,17.00933 -2.5421,40.5 0.01,23.18728 0.2805,27.61288 2.4921,40.3943 1.3661,7.89473 3.2082,16.66973 4.0938,19.5 0.8855,2.83027 1.9692,6.72095 2.4082,8.64595 1.0069,4.41522 4.5014,14.13186 7.1928,20 5.5515,12.10419 7.3891,15.65435 9.026,17.43856 0.9782,1.06621 1.7786,2.37552 1.7786,2.90959 0,0.53406 2.475,3.5658 5.5,6.7372 3.025,3.1714 5.5,6.23392 5.5,6.80562 0,0.57169 -1.2503,2.5176 -2.7784,4.32423 -15.186,17.95373 -28.1979,52.78726 -32.4182,86.7848 -1.6832,13.55936 -1.677,49.51571 0.011,63 1.792,14.31597 7.3526,37.79956 11.2474,47.5 6.6148,16.4747 15.094,32.24938 21.1883,39.41846 1.5125,1.77924 2.75,3.80572 2.75,4.50328 0,1.6176 -3.2393,4.57826 -5.0092,4.57826 -1.8537,0 -105.9909,-104.50736 -105.9909,-106.36748 0,-1.98566 2.7373,-4.63252 4.7909,-4.63252 0.9064,0 18.6492,16.97954 39.4285,37.7323 20.7793,20.75277 37.7806,37.23377 37.7806,36.62443 0,-0.60933 -1.1691,-3.75136 -2.598,-6.9823 -1.4288,-3.23094 -2.4497,-5.87443 -2.2686,-5.87443 0.1811,0 -0.4147,-2.025 -1.324,-4.5 -1.967,-5.35429 -7.1184,-25.86025 -7.034,-28 0.033,-0.825 -0.6911,-5.55 -1.6081,-10.5 -2.1752,-11.74179 -2.3788,-57.14588 -0.3065,-68.37107 0.7484,-4.05409 1.5089,-9.00409 1.69,-11 0.5599,-6.1697 4.5163,-21.1084 8.6417,-32.62893 2.1664,-6.05 4.1905,-11.9 4.498,-13 0.3075,-1.1 -16.7232,15.2125 -37.8459,36.25 -21.1227,21.0375 -38.9217,38.25 -39.5533,38.25 -1.6988,0 -4.2913,-2.89815 -4.2913,-4.79712 0,-0.90985 21.375,-23.04645 47.5,-49.19246 26.125,-26.146 47.5,-47.86944 47.5,-48.27431 0,-0.40486 -50.2812,-0.73611 -111.7361,-0.73611 l -111.736,0 48.236,48.27406 c 26.5299,26.55073 48.2361,48.72561 48.2361,49.27749 0,1.77567 -3.0677,5.44845 -4.5508,5.44845 -0.7906,0 -18.9901,-17.57029 -40.4433,-39.0451 -21.4533,-21.4748 -39.0059,-38.55245 -39.0059,-37.95034 0,0.60212 0.6418,2.33592 1.4263,3.85289 3.7056,7.16585 11.0477,31.68379 12.1235,40.48519 0.2796,2.28655 1.2803,7.98236 2.2238,12.65736 2.5631,12.69916 2.4788,57.65613 -0.1332,71 -1.0227,5.225 -1.9946,10.85 -2.1597,12.5 -0.7695,7.68869 -7.4874,29.97702 -12.9608,43 -1.3478,3.20687 6.1233,-3.78255 37.6789,-35.25 21.648,-21.5875 40.1022,-39.25 41.0092,-39.25 1.9045,0 4.792,2.59758 4.792,4.31087 0,1.84863 -105.3318,106.68913 -107.1891,106.68913 -0.9174,0 -2.3752,-0.70714 -3.2395,-1.57143 z"
       id="path3050"
       style="fill:#000000;fill-opacity:1;stroke:none;display:inline" />
  </g>
</svg>
