<?xml version="1.0" encoding="UTF-8" standalone="no"?>
<!-- Created with Inkscape (http://www.inkscape.org/) -->

<svg
   xmlns:dc="http://purl.org/dc/elements/1.1/"
   xmlns:cc="http://creativecommons.org/ns#"
   xmlns:rdf="http://www.w3.org/1999/02/22-rdf-syntax-ns#"
   xmlns:svg="http://www.w3.org/2000/svg"
   xmlns="http://www.w3.org/2000/svg"
   version="1.1"
   width="314.70041"
   height="498.57907"
   id="svg8906">
  <defs
     id="defs8908" />
  <metadata
     id="metadata8911">
    <rdf:RDF>
      <cc:Work
         rdf:about="">
        <dc:format>image/svg+xml</dc:format>
        <dc:type
           rdf:resource="http://purl.org/dc/dcmitype/StillImage" />
        <dc:title></dc:title>
      </cc:Work>
    </rdf:RDF>
  </metadata>
  <g
     transform="translate(-617.49178,153.91213)"
     id="layer1">
    <path
       d="m 802.9418,-24.305562 c -4.363,-2.5412 -0.2084,-9.3059 4.25,-6.9199 1.1,0.5887 2,1.2427 2,1.4534 0,0.2107 0.2509,1.0368 0.5575,1.8359 0.6094,1.5879 -1.9938,4.7289 -3.8789,4.6803 -0.6482,-0.017 -1.9661,-0.4891 -2.9286,-1.0497 z m -62.1786,-0.4913 c -1.8473,-1.8474 -1.8688,-2.0043 -0.5992,-4.3767 1.3131,-2.4535 3.7653,-3.2628 6.1002,-2.0131 2.5107,1.3436 2.5066,5.581 -0.01,6.926 -2.6278,1.4064 -3.6515,1.3065 -5.4943,-0.5362 z m 62.1786,246.491302 c -2.3495,-1.3685 -2.2366,-5.5891 0.1843,-6.8847 2.6278,-1.4064 3.6515,-1.3065 5.4943,0.5362 2.0584,2.0585 1.9827,3.0173 -0.4286,5.4286 -2.2601,2.2601 -2.7897,2.3529 -5.25,0.9199 z m -61.75,-0.9199 c -2.4113,-2.4113 -2.487,-3.3701 -0.4286,-5.4286 1.8428,-1.8427 2.8665,-1.9426 5.4943,-0.5362 3.4776,1.8611 1.5618,7.9648 -2.5,7.9648 -0.3111,0 -1.4657,-0.9 -2.5657,-2 z m 122.8977,123.0025 c -2.6817,-1.5675 -11.8781,-15.6352 -17.5442,-26.8371 -2.9444,-5.8213 -5.3535,-10.9448 -5.3535,-11.3857 0,-0.4408 -0.8291,-2.7091 -1.8425,-5.0406 -5.013,-11.5337 -10.1011,-32.0545 -12.3326,-49.7391 -1.7129,-13.5751 -1.7196,-52.3445 -0.011,-66 3.694,-29.5295 12.3235,-55.3378 26.675,-79.7768 1.3813,-2.3523 2.5115,-4.4898 2.5115,-4.75 0,-0.260302 -53.3346,-0.473202 -118.5214,-0.473202 l -118.5215,0 -1.0814,-2.3735 c -0.785,-1.7229 -0.7695,-2.9564 0.057,-4.5 l 1.1381,-2.1265 118.4648,0 c 65.1556,0 118.4648,-0.2129 118.4648,-0.4732 0,-0.2602 -1.1302,-2.3977 -2.5115,-4.75 -14.3515,-24.439 -22.981,-50.2473 -26.675,-79.7767997 -1.7082,-13.6555 -1.7015,-52.4249003 0.011,-65.9999983 2.2315,-17.684702 7.3196,-38.205402 12.3326,-49.7391 1.0134,-2.3315 1.8425,-4.5998 1.8425,-5.0406 0,-1.9573 11.2085,-22.6951 16.0575,-29.7094 6.3756,-9.2226 9.0164,-10.8815 12.221,-7.6768 1.5873,1.5872 1.9211,2.5844 1.2076,3.6071 -17.8712,25.6159 -23.0081,37.0826 -31.3915,70.073098 -2.8354,11.158002 -5.0906,34.1877 -5.0908,51.9857 -3e-4,35.0554003 6.2166,65.2685 19.2394,93.5 3.0704,6.6563 9.8945,18.1068 12.6642,21.25 l 2.4232,2.75 24.3347,0 c 13.3841,0 24.3347,-0.2933 24.3347,-0.6517 0,-0.3585 -1.919,-4.071 -4.2645,-8.25 -8.7349,-15.5636 -16.6258,-34.2968 -18.2513,-43.3291 -0.2246,-1.2481 -1.2887,-5.6442 -2.3647,-9.7692 -4.2059,-16.124 -5.6195,-30.2110997 -5.6195,-56 0,-18.7341 0.4258,-27.206398 1.8091,-35.999998 4.0331,-25.636102 9.7979,-44.3075 19.8732,-64.3661 2.7256,-5.4263 5.3767,-10.3763 5.8913,-11 0.5146,-0.6236 2.7046,-3.8339 4.8667,-7.1339 4.3377,-6.6205 7.213,-8.9035 10.0711,-7.9964 3.2912,1.0446 3.4162,4.2529 0.3211,8.241 -7.4432,9.5907 -20.687,34.965 -21.9847,42.1217 -0.2437,1.3437 -0.8669,3.2351 -1.385,4.203198 -1.6351,3.0552 -6.6665,24.948502 -8.602,37.430502 -2.3377,15.075698 -2.637,54.7955983 -0.5,66.3710983 0.7484,4.0541 1.5023,8.8941997 1.6753,10.7558997 0.3991,4.2938 5.0324,23.0012 7.6465,30.873 5.6871,17.126 14.7959,34.6531 23.0145,44.2848 1.5416,1.8066 2.8029,3.9285 2.8029,4.7152 0,0.7867 -1.2613,2.9086 -2.8029,4.7152 -8.2186,9.631702 -17.3274,27.158802 -23.0145,44.284802 -2.6141,7.8718 -7.2474,26.5792 -7.6465,30.873 -0.173,1.8617 -0.9269,6.7018 -1.6753,10.7559 -2.137,11.5755 -1.8377,51.2954 0.5,66.3711 1.9355,12.482 6.9669,34.3752 8.602,37.4305 0.5181,0.968 1.1413,2.8595 1.385,4.2032 1.2977,7.1567 14.5415,32.531 21.9847,42.1217 3.0951,3.9881 2.9701,7.1964 -0.3211,8.241 -2.8581,0.9071 -5.7334,-1.3759 -10.0711,-7.9964 -2.1621,-3.3 -4.3521,-6.5103 -4.8667,-7.134 -0.5146,-0.6236 -3.1657,-5.5736 -5.8913,-11 -4.6298,-9.2172 -5.8046,-12.0184 -11.058,-26.366 -2.79,-7.6198 -6.6609,-24.3063 -8.8152,-38 -1.3833,-8.7936 -1.8091,-17.2659 -1.8091,-36 0,-25.7889 1.4136,-39.8759 5.6195,-56 1.076,-4.125 2.1401,-8.5211 2.3647,-9.7692 1.6255,-9.0323 9.5164,-27.7655 18.2513,-43.3291 2.3455,-4.179 4.2645,-7.8915 4.2645,-8.25 0,-0.3584 -10.9506,-0.651702 -24.3347,-0.651702 l -24.3347,0 -2.4232,2.750002 c -2.7697,3.1432 -9.5938,14.5937 -12.6642,21.25 -13.0228,28.2315 -19.2397,58.4446 -19.2394,93.5 2e-4,17.798 2.2554,40.8277 5.0908,51.9857 8.371,32.9416 13.6367,44.6989 31.3634,70.0284 0.6654,0.9508 0.389,1.9974 -0.905,3.4274 -2.0423,2.2566 -3.2291,2.4793 -5.6553,1.061 z"
       id="path5593"
       style="fill:#000000;fill-opacity:1;stroke:none;display:inline" />
  </g>
</svg>
