<?xml version="1.0" encoding="UTF-8" standalone="no"?>
<!-- Created with Inkscape (http://www.inkscape.org/) -->

<svg
   xmlns:dc="http://purl.org/dc/elements/1.1/"
   xmlns:cc="http://creativecommons.org/ns#"
   xmlns:rdf="http://www.w3.org/1999/02/22-rdf-syntax-ns#"
   xmlns:svg="http://www.w3.org/2000/svg"
   xmlns="http://www.w3.org/2000/svg"
   version="1.1"
   width="499.49841"
   height="499.61783"
   id="svg2">
  <defs
     id="defs4" />
  <metadata
     id="metadata7">
    <rdf:RDF>
      <cc:Work
         rdf:about="">
        <dc:format>image/svg+xml</dc:format>
        <dc:type
           rdf:resource="http://purl.org/dc/dcmitype/StillImage" />
        <dc:title></dc:title>
      </cc:Work>
    </rdf:RDF>
  </metadata>
  <g
     transform="translate(-18.635274,-570.06127)"
     id="layer1">
    <path
       d="m 260.53323,1069.3943 c -7.89048,-1.0834 -14.04225,-3.0463 -21.49628,-6.859 -11.9963,-6.1362 -21.23785,-15.3676 -27.44241,-27.4126 -3.01148,-5.8462 -4.71378,-10.5869 -6.07642,-16.9222 -0.79208,-3.6826 -0.93246,-5.5784 -0.93246,-12.5929 0,-7.01457 0.14038,-8.91032 0.93246,-12.59294 1.36264,-6.33534 3.06494,-11.07606 6.07642,-16.92225 6.20157,-12.03912 15.40793,-21.23787 27.45699,-27.43432 7.8426,-4.0332 15.61937,-6.31682 24.06434,-7.06642 l 3.20248,-0.28426 0,-28.64679 0,-28.64678 -30.16528,0 c -29.61433,0 -30.18039,-0.0151 -30.99174,-0.82577 -1.1471,-1.14615 -1.04142,-1.82252 0.56431,-3.61152 3.4963,-3.89537 8.30067,-12.95815 11.12908,-20.99346 3.18707,-9.05424 5.46347,-20.87757 5.93477,-30.82441 l 0.26899,-5.67713 -38.03226,0 -38.03225,0 -0.2845,3.19984 c -0.75022,8.43799 -3.03574,16.20835 -7.07226,24.04447 -6.20157,12.03911 -15.40793,21.23786 -27.45699,27.43431 -5.85103,3.009 -10.59569,4.70989 -16.936246,6.07141 -3.68566,0.79143 -5.58298,0.93168 -12.6033,0.93168 -7.02032,0 -8.91764,-0.14025 -12.60331,-0.93168 -6.34056,-1.36152 -11.08521,-3.06241 -16.93624,-6.07141 -12.04905,-6.19645 -21.25545,-15.3952 -27.45695,-27.43431 -3.0115,-5.8462 -4.7138,-10.58694 -6.0765,-16.92226 -0.792,-3.68262 -0.9324,-5.57838 -0.9324,-12.5929 0,-7.01452 0.1404,-8.91028 0.9324,-12.5929 1.3627,-6.33532 3.065,-11.07606 6.0765,-16.92226 6.2015,-12.03911 15.4079,-21.23786 27.45695,-27.43431 5.85103,-3.009 10.59568,-4.70989 16.93624,-6.07141 3.68567,-0.79143 5.58299,-0.93168 12.60331,-0.93168 7.02032,0 8.91764,0.14025 12.6033,0.93168 6.340556,1.36152 11.085216,3.06241 16.936246,6.07141 12.04906,6.19645 21.25542,15.3952 27.45699,27.43431 4.03652,7.83612 6.32204,15.60648 7.07226,24.04447 l 0.2845,3.19984 37.96798,0 c 20.88238,0 37.96721,-0.13935 37.96629,-0.30966 -0.009,-1.68825 -1.32858,-14.02709 -1.84322,-17.23782 -2.46778,-15.39574 -8.15819,-29.77022 -15.68587,-39.62387 -1.6997,-2.22488 -1.79375,-2.79341 -0.65104,-3.93517 0.81145,-0.81079 1.37741,-0.82577 31.19834,-0.82577 l 30.3719,0 0,-28.64198 0,-28.64198 -3.40909,-0.28525 c -8.50158,-0.71136 -16.33943,-2.99611 -24.27095,-7.07504 -12.04906,-6.19645 -21.25542,-15.3952 -27.45699,-27.43432 -3.01148,-5.84619 -4.71378,-10.58693 -6.07642,-16.92225 -0.79209,-3.68263 -0.93246,-5.57838 -0.93246,-12.5929 0,-7.01452 0.14037,-8.91028 0.93246,-12.5929 1.36264,-6.33532 3.06494,-11.07606 6.07642,-16.92226 6.20157,-12.03911 15.40793,-21.23786 27.45699,-27.43431 5.85103,-3.009 10.59568,-4.70989 16.93624,-6.07141 3.68567,-0.79143 5.58299,-0.93169 12.60331,-0.93169 7.02032,0 8.91764,0.14026 12.6033,0.93169 6.34056,1.36152 11.08522,3.06241 16.93625,6.07141 12.04906,6.19645 21.25542,15.3952 27.45699,27.43431 3.01148,5.8462 4.71378,10.58694 6.07642,16.92226 0.79208,3.68262 0.93246,5.57838 0.93246,12.5929 0,7.01452 -0.14038,8.91027 -0.93246,12.5929 -1.36264,6.33532 -3.06494,11.07606 -6.07642,16.92225 -6.20157,12.03912 -15.40793,21.23787 -27.45699,27.43432 -7.75596,3.98864 -15.46081,6.2674 -23.85773,7.05609 l -2.99587,0.28138 0,28.65339 0,28.65339 30.16529,0 c 29.61432,0 30.18038,0.0151 30.99173,0.82577 1.1471,1.14615 1.04142,1.82252 -0.56431,3.61152 -3.4963,3.89537 -8.30067,12.95815 -11.12908,20.99346 -3.18707,9.05424 -5.46347,20.87757 -5.93476,30.82441 l -0.269,5.67713 37.82565,0 37.82564,0 0.2845,-3.19984 c 0.75022,-8.43799 3.03574,-16.20835 7.07226,-24.04447 6.20157,-12.03911 15.40793,-21.23786 27.45699,-27.43431 5.85103,-3.009 10.59567,-4.70989 16.93625,-6.07141 3.68566,-0.79143 5.58297,-0.93168 12.6033,-0.93168 7.02033,0 8.91765,0.14025 12.60331,0.93168 6.34058,1.36152 11.0852,3.06241 16.93624,6.07141 12.04905,6.19645 21.25541,15.3952 27.45698,27.43431 3.01149,5.8462 4.7138,10.58694 6.07645,16.92226 0.79206,3.68262 0.93243,5.57838 0.93243,12.5929 0,7.01452 -0.14037,8.91028 -0.93243,12.5929 -1.2769,5.9367 -2.93682,10.72714 -5.46372,15.76812 -2.7943,5.5745 -4.90285,8.79432 -8.79178,13.42539 -2.79347,3.32655 -5.02161,5.38738 -12.06459,11.15863 -2.34115,1.91844 -11.35764,6.46225 -15.69309,7.90844 -7.45562,2.48703 -11.53327,3.09908 -20.64658,3.09908 -9.08119,0 -13.19466,-0.61344 -20.53838,-3.06286 -6.9889,-2.33108 -15.92818,-7.30844 -21.557,-12.00285 -12.55772,-10.47307 -20.89533,-26.64286 -22.38664,-43.41616 l -0.2845,-3.19984 -37.82543,0 -37.82543,0 0.27097,5.47069 c 0.48658,9.82361 2.78084,21.66472 5.93236,30.61797 2.82841,8.03531 7.63278,17.09809 11.12908,20.99345 1.50305,1.67461 1.70677,2.60901 0.83003,3.80703 -0.51504,0.70378 -1.16322,0.75811 -7.95455,0.6667 -4.0666,-0.0547 -17.76055,0.0349 -30.431,0.19919 l -23.03719,0.29869 0,28.58607 0,28.58607 3.20248,0.28426 c 8.44497,0.7496 16.22175,3.03322 24.06434,7.06642 12.04906,6.19645 21.25542,15.3952 27.45699,27.43432 3.01148,5.84619 4.71378,10.58691 6.07642,16.92225 0.79209,3.68262 0.93246,5.57837 0.93246,12.59294 0,7.0145 -0.14037,8.9103 -0.93246,12.5929 -1.36264,6.3353 -3.06494,11.076 -6.07642,16.9222 -8.89102,17.2602 -24.89734,29.3755 -44.18662,33.4452 -4.69785,0.9911 -16.3165,1.4512 -20.86777,0.8264 z m 19.42149,-5.3527 c 18.1743,-3.7136 33.10861,-14.8555 41.47349,-30.9418 2.63354,-5.0645 4.3738,-10.0051 5.68433,-16.138 0.75324,-3.5249 0.9264,-5.6472 0.9264,-11.3542 0,-5.70706 -0.17316,-7.82935 -0.9264,-11.35429 -1.96912,-9.21478 -5.55905,-17.3192 -10.70843,-24.1747 -8.99934,-11.98103 -21.27161,-19.70619 -36.44939,-22.94418 -3.52784,-0.75262 -5.6519,-0.92564 -11.36364,-0.92564 -5.71173,0 -7.8358,0.17302 -11.36363,0.92564 -15.17779,3.23799 -27.45005,10.96315 -36.4494,22.94418 -5.14938,6.8555 -8.73931,14.95992 -10.70843,24.1747 -1.32347,6.19339 -1.32347,16.51509 0,22.70849 3.93314,18.4058 14.97287,33.1561 31.00151,41.4214 6.58578,3.3961 13.06249,5.4201 20.70177,6.4695 4.2947,0.59 13.28873,0.1888 18.18182,-0.8111 z M 94.004304,878.24478 c 18.174306,-3.71367 33.108616,-14.85561 41.473496,-30.94187 2.63353,-5.06447 4.3738,-10.00513 5.68433,-16.13796 0.75324,-3.52492 0.9264,-5.64723 0.9264,-11.35425 0,-5.70702 -0.17316,-7.82933 -0.9264,-11.35425 -1.96912,-9.2148 -5.55905,-17.31921 -10.70843,-24.1747 -8.99935,-11.98103 -21.27161,-19.70619 -36.449396,-22.94418 -6.19852,-1.32238 -16.52874,-1.32238 -22.72727,0 -15.17778,3.23799 -27.45005,10.96315 -36.44936,22.94418 -5.1494,6.85549 -8.7393,14.9599 -10.7085,24.1747 -1.3234,6.1934 -1.3234,16.5151 0,22.7085 3.9332,18.40575 14.9729,33.15603 31.00154,41.4214 6.58579,3.39604 13.0625,5.42007 20.70178,6.4695 4.2947,0.58997 13.28873,0.18876 18.18181,-0.81107 z m 231.258226,0.68583 c 0.11434,-0.11425 -0.55024,-1.40715 -1.47685,-2.87312 -4.43855,-7.02214 -9.19444,-19.11568 -11.32198,-28.79014 -2.2733,-10.33723 -2.54345,-13.27553 -2.54345,-27.66309 0,-14.38756 0.27015,-17.32586 2.54345,-27.66309 2.12754,-9.67447 6.88343,-21.768 11.32198,-28.79014 0.92661,-1.46597 1.60834,-2.74174 1.51496,-2.83505 -0.0934,-0.0933 -25.85704,-0.12253 -57.25257,-0.0649 l -57.08279,0.10467 1.71036,2.68374 c 2.36327,3.70822 6.55956,12.58262 8.31559,17.58599 5.83279,16.61904 8.04593,41.42827 5.26071,58.97245 -2.19296,13.81351 -6.99435,27.59975 -12.82487,36.82411 -0.90979,1.43936 -1.65417,2.74327 -1.65417,2.89757 0,0.31877 113.1695,-0.0691 113.48963,-0.38895 z m -58.87215,-56.97889 c -1.87841,-1.99782 -0.48131,-5.23763 2.25861,-5.23763 1.59696,0 3.04127,1.49806 3.04127,3.15447 0,2.67205 -3.46547,4.03418 -5.29988,2.08316 z m 199.51475,56.29114 c 6.56641,-1.34466 11.55079,-3.15795 16.6112,-6.04306 16.22744,-9.25183 26.26157,-22.91603 30.13339,-41.03485 0.75326,-3.52492 0.9264,-5.64723 0.9264,-11.35425 0,-5.70702 -0.17314,-7.82933 -0.9264,-11.35425 -1.96909,-9.2148 -5.55905,-17.31921 -10.70843,-24.1747 -8.99934,-11.98103 -21.27161,-19.70619 -36.44938,-22.94418 -6.19851,-1.32238 -16.52876,-1.32238 -22.72727,0 -9.2224,1.96749 -17.33352,5.55445 -24.19468,10.69958 -11.9956,8.99541 -19.75396,21.30454 -22.95482,36.4193 -0.74248,3.50602 -0.91809,5.67783 -0.91809,11.35425 0,5.67642 0.17561,7.84823 0.91809,11.35425 1.29352,6.10811 3.03462,11.0584 5.676,16.13796 9.04976,17.40333 25.85048,28.93412 46.22556,31.72584 4.48951,0.61514 13.4081,0.23397 18.38843,-0.78589 z M 279.54149,692.44791 c 18.17431,-3.71366 33.10862,-14.8556 41.4735,-30.94186 2.63353,-5.06447 4.3738,-10.00514 5.68433,-16.13796 0.75324,-3.52493 0.9264,-5.64723 0.9264,-11.35425 0,-5.70702 -0.17316,-7.82933 -0.9264,-11.35425 -1.96912,-9.2148 -5.55905,-17.31921 -10.70843,-24.1747 -8.99935,-11.98104 -21.27161,-19.70619 -36.4494,-22.94418 -6.19852,-1.32238 -16.52874,-1.32238 -22.72727,0 -15.17778,3.23799 -27.45005,10.96314 -36.44939,22.94418 -5.14938,6.85549 -8.73931,14.9599 -10.70843,24.1747 -1.32347,6.1934 -1.32347,16.51509 0,22.7085 3.93314,18.40575 14.97286,33.15603 31.0015,41.4214 6.58579,3.39604 13.0625,5.42007 20.70178,6.4695 4.2947,0.58997 13.28873,0.18875 18.18181,-0.81108 z"
       id="path2996"
       style="fill:#000000" />
  </g>
</svg>
