<?xml version="1.0" encoding="UTF-8" standalone="no"?>
<!-- Created with Inkscape (http://www.inkscape.org/) -->

<svg
   xmlns:dc="http://purl.org/dc/elements/1.1/"
   xmlns:cc="http://creativecommons.org/ns#"
   xmlns:rdf="http://www.w3.org/1999/02/22-rdf-syntax-ns#"
   xmlns:svg="http://www.w3.org/2000/svg"
   xmlns="http://www.w3.org/2000/svg"
   version="1.1"
   width="399.52185"
   height="420.80014"
   id="svg11160">
  <defs
     id="defs11162" />
  <metadata
     id="metadata11165">
    <rdf:RDF>
      <cc:Work
         rdf:about="">
        <dc:format>image/svg+xml</dc:format>
        <dc:type
           rdf:resource="http://purl.org/dc/dcmitype/StillImage" />
        <dc:title></dc:title>
      </cc:Work>
    </rdf:RDF>
  </metadata>
  <g
     transform="translate(-126.0154,-322.07235)"
     id="layer1">
    <path
       d="m 249.99589,479.71945 c -1.5148,-3.9309 -3.1343,-7.5662 -3.5989,-8.0783 -1.0379,-1.14431 2.3736,10.8404 4.2114,14.7946 2.5816,5.5548 2.1059,0.3382 -0.6125,-6.7163 z m 47.4053,27.6029 c -1.9082,-7.9249 -3.8861,-18.8672 -3.8862,-21.5 -2e-4,-2.6241 -0.2235,-2.75 -4.8778,-2.75 -2.8271,0 -5.3394,-0.5565 -5.9762,-1.3238 -1.7352,-2.0908 0.6599,-3.6762 5.5538,-3.6762 2.365,0 4.3,-0.4072 4.3,-0.905 0,-1.3878 -7.9659,-5.7459 -16.5318,-9.04427 -9.2485,-3.56131 -29.4905,-7.77208 -29.4562,-6.12754 0.01,0.31725 1.1756,2.60181 2.5977,5.07681 3.3887,5.8975 7.8556,18.5867 9.9004,28.1239 1.3033,6.0787 2.2787,8.2408 4.8122,10.6672 3.0891,2.9583 3.5543,3.0692 16.6777,3.9763 7.425,0.5132 14.4651,1.0005 15.6447,1.0829 1.9841,0.1385 2.0771,-0.1312 1.2417,-3.6003 z m 35.4807,10.5 c -9.3303,-15.5317 -27.566,-34.75 -32.9732,-34.75 -2.7784,0 -2.782,-0.2959 0.1749,14.5 2.4114,12.0659 3.322,14.4428 5.7261,14.946 9.7391,2.0389 16.89,3.7587 20.7051,4.9799 5.7402,1.8373 7.3246,1.9179 6.3671,0.3241 z m -25.3671,17.7102 c 0,-0.2969 -0.8463,-2.2094 -1.8807,-4.25 -1.0343,-2.0406 -2.6792,-6.2586 -3.6552,-9.3733 -1.4499,-4.6269 -2.2493,-5.767 -4.3693,-6.2308 -3.9758,-0.8697 -25.0948,-1.9896 -25.0948,-1.3306 0,0.606 9.2982,7.7968 14.5,11.2137 3.8435,2.5247 18.7641,10.4432 19.75,10.4816 0.4125,0.016 0.75,-0.2137 0.75,-0.5106 z m 36.4711,6.0592 c -1.2726,-3.3809 -3.3617,-8.3488 -4.6425,-11.0396 -2.3108,-4.855 -2.3972,-4.9142 -11.2998,-7.7478 -8.6678,-2.7589 -21.7206,-5.8735 -22.2782,-5.3159 -0.3739,0.3739 2.2558,7.819 5.4032,15.2971 l 2.6149,6.2132 6.6157,2.2076 c 6.9969,2.3348 22.8302,6.5063 24.7581,6.5229 0.728,0.01 0.3031,-2.2199 -1.1714,-6.1375 z m 45.5348,-0.2694 c 0.011,-17.9431 4.3528,-38.0559 11.1116,-51.4715 1.5854,-3.1468 2.8825,-5.9593 2.8825,-6.25 0,-0.2907 -21.1231,-0.5285 -46.9401,-0.5285 l -46.9402,0 5.5522,5.25 c 7.2131,6.8206 14.6878,16.2115 20.411,25.6438 l 4.5829,7.5529 12.9597,6.5267 c 13.5592,6.8285 20.706,11.5089 28.5817,18.7179 7.1651,6.5586 7.7917,6.1214 7.7987,-5.4413 z m -12.5059,7.2654 c -8.3697,-6.9041 -29.3644,-19.5154 -32.4883,-19.5154 -0.575,0 0.025,2.1375 1.3332,4.75 1.3082,2.6125 3.1442,7.0892 4.08,9.9482 1.6347,4.9943 1.8656,5.2198 5.8883,5.7497 5.9838,0.7882 11.3103,1.1921 18.1868,1.379 l 6,0.1632 -3,-2.4747 z m -23.8951,28.7797 c -0.3688,-3.1378 -1.6339,-9.8988 -2.8113,-15.0246 -1.9476,-8.4784 -2.3733,-9.3662 -4.7172,-9.8361 -1.417,-0.2841 -7.941,-1.846 -14.4977,-3.4709 -6.5566,-1.6249 -12.1157,-2.7598 -12.3535,-2.5221 -0.2377,0.2378 1.9769,3.9441 4.9213,8.2364 6.5857,9.6005 23.4988,26.9536 26.8886,27.5883 1.3557,0.2538 2.6394,0.5228 2.8526,0.5977 0.2132,0.075 0.086,-2.431 -0.2828,-5.5687 z m -18.7664,-3.0647 c -9.3146,-9.5049 -14.7439,-16.4481 -19.4697,-24.8987 -2.3734,-4.2439 -4.5271,-6.8134 -6.2457,-7.4513 -10.8855,-4.0405 -28.5388,-14.6674 -38.2589,-23.0311 -3.0997,-2.6671 -6.2992,-4.8493 -7.1101,-4.8493 -1.1997,0 -1.5817,2.5614 -2.0507,13.75 -0.317,7.5625 -0.8358,15.1 -1.153,16.75 -2.444,12.7133 -5.6865,22.8882 -10.0174,31.4349 -1.3932,2.7492 -2.5331,5.3511 -2.5333,5.7819 -1e-4,0.4307 21.2431,0.6619 47.2071,0.5136 l 47.2074,-0.2695 -7.5757,-7.7305 z m 70.0671,14.6715 c -1.9511,-7.0407 -6.7696,-17.6275 -6.859,-15.0699 -0.1022,2.9223 7.2039,22.168 8.4154,22.168 0.2258,0 -0.4746,-3.1942 -1.5564,-7.0981 z m -2.3322,9.6332 c -1.4699,-2.5083 -3.8167,-7.5923 -5.2151,-11.2978 -2.559,-6.7809 -6.5782,-23.2373 -5.6753,-23.2373 0.2668,0 -0.872,-1.7135 -2.5307,-3.8077 l -3.0157,-3.8076 -15.6965,-1.2308 c -8.6331,-0.6769 -15.9085,-1.0189 -16.1675,-0.7598 -0.259,0.259 0.4737,4.4945 1.6282,9.4122 1.1546,4.9177 2.0992,10.3113 2.0992,11.9857 0,5.0186 0.8953,6.208 4.6727,6.208 4.4156,0 7.4246,1.5827 6.6831,3.5153 -0.3965,1.033 -2.0583,1.4847 -5.4628,1.4847 -2.6911,0 -4.893,0.41 -4.893,0.9111 0,0.5011 4.1978,2.9667 9.3283,5.4792 9.2488,4.529 24.6847,8.9834 32.787,9.4615 l 4.1307,0.2437 -2.6726,-4.5604 z m -159.207,142.9774 c -0.9706,-2.5294 0.5363,-3.2337 8.1336,-3.8017 40.6779,-3.041 78.7136,-37.0118 94.8472,-84.7108 5.2778,-15.6036 7.7335,-29.2544 8.3794,-46.5792 l 0.5622,-15.0792 -3.5124,-2.1708 c -3.4902,-2.157 -3.8527,-2.1708 -57.0854,-2.1708 -30.7203,0 -53.8105,-0.3844 -54.1299,-0.9012 -0.3064,-0.4956 1.171,-3.7581 3.283,-7.25 5.6558,-9.3509 9.9469,-22.3767 12.5857,-38.2047 1.1363,-6.8154 1.6225,-24.2369 0.7135,-25.5649 -0.8212,-1.1999 -2.4241,-1.239 -10.3079,-0.2515 -44.3166,5.5507 -78.4447,21.6703 -99.4201,46.9587 -7.2118,8.6948 -13.9673,22.5571 -15.4549,31.7136 -1.8916,11.6424 -1.8975,11.6602 -3.7461,11.2839 -3.342,-0.6802 -1.5995,-13.6846 3.5217,-26.2839 10.4307,-25.6616 39.5999,-48.6376 76.764,-60.4654 10.7384,-3.4176 28.9777,-6.9924 39.3014,-7.7029 9.2746,-0.6383 9.3005,-0.6476 9.0285,-3.2359 -0.1501,-1.4277 -1.4634,-4.3958 -2.9184,-6.5958 -4.1978,-6.3469 -8.5937,-15.6007 -10.4756,-22.0523 -2.2796,-7.81474 -3.4391,-18.58856 -2.1739,-20.1977 3.1118,-3.9575 31.4906,1.97135 46.7859,9.77442 2.1298,1.08657 4.0466,1.97558 4.2594,1.97558 0.2129,0 0.6572,-6.4125 0.9875,-14.25 1.8648,-44.25854 21.2576,-85.18502 52.4149,-110.61647 6.523,-5.32422 19.7134,-12.92828 28.4654,-16.40979 7.5746,-3.01315 24.5728,-6.72374 30.8015,-6.72374 3.7447,0 4.1304,0.22585 3.843,2.25 -0.2536,1.78552 -1.0421,2.30026 -3.8196,2.49347 -36.4924,2.5385 -68.2043,24.42393 -88.7604,61.25653 -10.8154,19.37909 -17.4232,44.33604 -18.8065,71.02911 l -0.7011,13.52909 3.5673,2.7209 3.5673,2.7209 52.9442,0 c 57.8044,0 57.3711,-0.043 53.1399,5.3355 -5.532,7.0329 -12.9276,28.3373 -14.2899,41.1648 -1.4073,13.2514 -1.8508,21.6065 -1.2698,23.9216 0.6183,2.4633 0.8373,2.5272 6.8738,2.0054 9.8426,-0.8507 20.7861,-2.67 30.2352,-5.0262 33.3518,-8.3168 60.7336,-24.7868 76.2798,-45.8819 7.8067,-10.5931 12.0804,-21.2374 13.7289,-34.19427 0.5953,-4.67928 2.3232,-7.15972 3.8935,-5.58936 1.263,1.26299 0.5097,10.12272 -1.4674,17.25713 -6.6631,24.0447 -25.6061,44.7059 -54.4348,59.3725 -19.244,9.7904 -43.1562,16.4408 -65.3599,18.1778 l -9.3354,0.7303 0.5821,2.9105 c 0.3201,1.6009 1.8793,4.8019 3.4647,7.1134 7.3782,10.7573 11.8461,23.0848 12.5554,34.6423 0.4795,7.8126 -0.3594,8.5128 -9.0807,7.5788 -13.2397,-1.4179 -21.2264,-3.4564 -31.8262,-8.1234 -4.4,-1.9373 -8.5625,-3.7668 -9.25,-4.0656 -0.9113,-0.3961 -1.2532,0.9082 -1.2617,4.8137 -0.01,2.9464 -0.6429,11.207 -1.4142,18.357 -4.4636,41.3781 -22.8175,77.4692 -50.9455,100.1794 -17.6111,14.2189 -35.3826,21.6567 -56.8794,23.8052 -5.7439,0.5741 -6.8451,0.4291 -7.3828,-0.9721 z"
       id="path5625"
       style="fill:#000000;fill-opacity:1;stroke:none;display:inline" />
  </g>
</svg>
