<?xml version="1.0" encoding="UTF-8" standalone="no"?>
<!-- Created with Inkscape (http://www.inkscape.org/) -->

<svg
   xmlns:dc="http://purl.org/dc/elements/1.1/"
   xmlns:cc="http://creativecommons.org/ns#"
   xmlns:rdf="http://www.w3.org/1999/02/22-rdf-syntax-ns#"
   xmlns:svg="http://www.w3.org/2000/svg"
   xmlns="http://www.w3.org/2000/svg"
   version="1.1"
   width="361.82181"
   height="310.37848"
   id="svg8906">
  <defs
     id="defs8908" />
  <metadata
     id="metadata8911">
    <rdf:RDF>
      <cc:Work
         rdf:about="">
        <dc:format>image/svg+xml</dc:format>
        <dc:type
           rdf:resource="http://purl.org/dc/dcmitype/StillImage" />
        <dc:title></dc:title>
      </cc:Work>
    </rdf:RDF>
  </metadata>
  <g
     transform="translate(-643.18559,29.281314)"
     id="layer1">
    <path
       d="m 746.43978,50.408131 c 3.26279,-0.6883 6.25957,-1.8969 6.6595,-2.6858 7.5804,-14.9542 16.88724,-26.1078 27.88665,-33.4202 39.18807,-26.0522 91.41615,-13.0866999 113.06477,28.068 3.02721,5.7548 3.22502,5.9145 8.77687,7.0884 7.48728,1.583 8.17986,1.5781 8.17986,-0.059 0,-2.4616 4.95729,-18.8018 9.13532,-30.1119 2.23491,-6.05 7.13849,-16.9624999 10.89686,-24.2499999 l 6.83338,-13.2500001 -113.87675,0 -113.87675,0 6.44205,12.3420001 c 7.27754,13.9427 13.78254,30.4057999 17.84303,45.1579999 1.51385,5.5 2.92968,10.5625 3.14628,11.25 0.47201,1.4982 1.22312,1.4872 8.88893,-0.1297 z m 63.52181,-0.1792 c 10.85437,-2.189 26.50647,-1.5177 36.54584,1.5674 8.5853,2.6383 8.6575,2.6386 15.75975,0.056 3.16786,-1.1521 9.3681,-2.6546 13.77831,-3.339 l 8.01855,-1.2443 -3.04428,-4.8003 c -6.67541,-10.5267 -18.61649,-20.4777 -30.51233,-25.4279 -6.40437,-2.6651 -18.96799,-5.2533 -25.5,-5.2533 -6.53201,0 -19.09563,2.5882 -25.5,5.2533 -12.2517,5.0982 -24.49684,15.5195 -31.38001,26.7061 l -3.1015,5.0406 2.53291,0 c 4.10322,0 17.62062,3.0218 21.9486,4.9066 3.8048,1.657 4.1952,1.6565 8,-0.01 2.2,-0.9632 7.80437,-2.5185 12.45416,-3.4562 z m 22.26002,20.1422 c 9.6447,-9.5153 9.75482,-9.105 -2.74149,-10.215 -6.21994,-0.5524 -21.47269,1.0423 -21.47269,2.245 0,0.238 3.4875,3.9426 7.75,8.2326 4.2625,4.289905 7.79119,7.879605 7.84154,7.977005 0.0503,0.097 3.93053,-3.6104 8.62264,-8.239605 z m 126.69901,-12.1765 c 4.57681,-22.4162 11.91734,-43.3757 22.11899,-63.1567999 l 6.83338,-13.2500001 -18.34314,0 -18.34314,0 -3.97446,6.2931 c -8.54249,13.5261001 -17.09338,33.5132 -22.54904,52.7069 -4.36348,15.3513 -4.58104,13.9598 2.86099,18.2994 8.0174,4.6751 17.96502,13.849905 23.0995,21.304905 l 3.85697,5.6001 1.18958,-8.8522 c 0.65427,-4.8687 2.11694,-13.394205 3.25037,-18.945405 z m -67.165,18.843205 c -0.29107,-4.8125 -1.08191,-10.887505 -1.75742,-13.500005 -1.14295,-4.4203 -1.45016,-4.75 -4.42583,-4.75 -3.39871,0 -14.55022,1.875 -15.82343,2.6606 -0.41718,0.2573 1.3837,2.1612 4.00195,4.2309 5.39984,4.2683 13.46875,12.966305 15.99358,17.240505 0.9318,1.5774 1.88457,2.868 2.11727,2.868 0.23271,0 0.18495,-3.9375 -0.10612,-8.75 z m -118.7648,-8.498205 c 3.49443,-3.1615 6.12069,-5.9811 5.83614,-6.2656 -0.28454,-0.2845 -4.21224,-1.0559 -8.7282,-1.7141 -6.91876,-1.0084 -8.34811,-0.9747 -9.08309,0.2146 -1.33324,2.1572 -3.00824,12.990005 -3.00824,19.455205 l 0,5.7781 4.31494,-5.86 c 2.37322,-3.223 7.17402,-8.4467 10.66845,-11.608205 z m -64.58334,1.4906 c 3.50193,-3.2759 9.15899,-7.6521 12.57126,-9.725 7.1349,-4.3342 7.0123,-3.3532 2.42378,-19.3936 -5.56546,-19.4555 -14.05461,-39.3001999 -22.59991,-52.8307 l -3.97446,-6.2931 -18.34314,0 -18.34314,0 6.83338,13.2500001 c 12.80168,24.8225999 22.58083,56.7118999 25.52937,83.2500049 1.12108,10.0902 1.21878,10.1532 5.58946,3.6081 2.17044,-3.2503 6.81148,-8.5898 10.3134,-11.865705 z m 194.61875,33.448609 c 0.0175,-5.768904 3.02665,-31.301804 4.51339,-38.296809 0.61496,-2.8933 0.43738,-3.1503 -2.59576,-3.7569 -1.79073,-0.3582 -3.36995,-0.5356 -3.50937,-0.3942 -0.13943,0.1413 0.13785,2.2819 0.61617,4.7569 1.38226,7.152305 1.09325,20.423605 -0.62603,28.747205 -1.58982,7.696804 -1.21244,16.862304 0.64698,15.713104 0.5147,-0.3181 0.94428,-3.3643 0.95462,-6.7693 z m -112.72795,-0.06 c 7.22052,-3.426404 17.60219,-6.631304 21.48105,-6.631304 2.47259,0 4.0454,-1.8349 4.79608,-5.5953 0.49835,-2.4964 -0.20678,-3.7737 -5.01688,-9.0872 -3.0782,-3.4004 -8.33772,-8.0128 -11.68782,-10.25 l -6.09109,-4.067405 -3.97336,2.2331 c -9.35031,5.255205 -21.80561,19.529205 -25.756,29.516805 -1.43473,3.627404 -0.64299,6.558804 3.63712,13.466504 l 2.30278,3.7164 6.48925,-4.9117 c 3.56909,-2.7014 9.78758,-6.4769 13.81887,-8.3899 z m 94.29032,5.4189 c 2.4303,-4.9492 2.56085,-5.7759 1.42123,-9.000004 -3.4431,-9.7409 -15.18334,-23.2981 -25.86984,-29.873605 l -4.94862,-3.0449 -4.65189,2.9501 c -5.8771,3.727205 -13.5151,10.843205 -16.93434,15.777205 -2.49712,3.6034 -2.56017,3.9866 -1.19384,7.2567 1.32,3.1592 1.97989,3.5631 7.76932,4.7556 11.77456,2.425204 29.05067,11.396104 35.79072,18.585004 l 2.46391,2.628 1.73861,-2.2922 c 0.95624,-1.2606 2.94288,-4.7445 4.41474,-7.7419 z m -122.61,16.9498 c 0.009,-0.275 -0.87842,-1.85 -1.97117,-3.5 l -1.98682,-3 0.0156,6 0.0156,6 1.95562,-2.5 c 1.07554,-1.375 1.96257,-2.725 1.97117,-3 z m 130.02883,0.7923 0,-7.0896 -2.85851,3.8986 -2.85851,3.8987 2.08438,3.6694 c 1.14641,2.0182 2.43274,3.4541 2.85851,3.191 0.42577,-0.2631 0.77413,-3.6688 0.77413,-7.5681 z m -46.54545,2.7532 c -2.97758,-2.9776 -3.09376,-4.9063 -0.45455,-7.5455 2.63921,-2.6392 4.56788,-2.523 7.54545,0.4545 2.97758,2.9776 3.09376,4.9063 0.45455,7.5455 -2.63921,2.6392 -4.56788,2.523 -7.54545,-0.4545 z m -0.95455,13.3421 c 5.9013,-1.6248 15.2711,-6.4799 21.33418,-11.0547 l 5.33417,-4.0248 -2.33417,-2.4899 c -5.19016,-5.5364 -20.01138,-13.8064 -28.21066,-15.7411 -2.49666,-0.5891 -2.78048,-0.4409 -2.14941,1.1221 1.25556,3.1097 1.79154,22.5606 0.77295,28.0508 -1.08684,5.858 -1.06332,5.8766 5.25294,4.1376 z m -49.04545,-13.3385 c -2.97758,-2.9776 -3.09376,-4.9063 -0.45455,-7.5455 2.63921,-2.6392 4.56788,-2.523 7.54545,0.4545 2.97758,2.9776 3.09376,4.9063 0.45455,7.5455 -2.63921,2.6392 -4.56788,2.523 -7.54545,-0.4545 z m 15.1136,12.2045 c -1.25579,-4.2482 -1.78987,-22.2525 -0.81576,-27.5 1.08746,-5.8581 1.064,-5.8766 -5.25239,-4.1376 -8.49717,2.3394 -26.5,13.1448 -26.5,15.9054 0,2.8699 17.22005,13.6454 26.5,16.5824 5.95963,1.8862 6.84056,1.7628 6.06815,-0.8502 z m 16.58784,0 c 2.78181,-9.5879 0.81433,-34.75 -2.71719,-34.75 -3.5609,0 -5.18743,20.8721 -2.55216,32.75 1.63907,7.3878 3.50112,8.0945 5.26935,2 z m 99.484,37.9205 c 9.77908,-7.2251 17.04565,-16.5151 22.42568,-28.6705 2.30785,-5.2142 2.43433,-6.5132 2.43433,-25 0,-18.4376 -0.13168,-19.7996 -2.41696,-25 -3.85113,-8.763604 -10.70782,-18.492604 -17.12691,-24.301604 -5.98619,-5.4172 -12.43558,-9.552305 -13.39773,-8.590105 -0.28631,0.2863 -1.49041,7.691505 -2.67578,16.456105 -2.53996,18.780404 -3.11209,58.553304 -1.07074,74.435604 2.764,21.5048 3.42013,25 4.69315,25 0.70122,0 3.91196,-1.9483 7.13496,-4.3295 z m -194.51744,-12.1967 c 3.05351,-22.4753 3.08975,-60.2158 0.0791,-82.335104 -1.14997,-8.4487 -2.33162,-15.602005 -2.62591,-15.896305 -1.56279,-1.5628 -15.53849,10.214405 -21.08093,17.764705 -8.91689,12.1436 -12.49481,23.595704 -12.49481,39.989304 0,16.3702 3.60594,27.9307 12.44368,39.894 6.00236,8.1251 19.02643,19.0359 20.7115,17.3508 0.43844,-0.4384 1.77376,-7.9854 2.96737,-16.771 z m 137.91197,8.7568 c 6.49791,-5.8802 14.64681,-17.3872 15.56528,-21.9796 0.43422,-2.1711 -0.25742,-4.6934 -2.56696,-9.3614 -1.73873,-3.5143 -3.53005,-6.7647 -3.9807,-7.2232 -0.45065,-0.4585 -3.63268,1.2374 -7.07117,3.7687 -10.02929,7.3795 -27.16547,14.5613 -34.75287,14.5613 -2.47259,0 -4.0454,1.8349 -4.79608,5.5953 -0.49833,2.4963 0.20664,3.7735 5.0146,9.0847 3.07695,3.399 8.62238,8.2022 12.32318,10.6739 l 6.72872,4.4939 3.83801,-2.1571 c 2.1109,-1.1864 6.475,-4.5434 9.69799,-7.4601 z m -63.15605,0.1413 c 3.13716,-2.839 6.99721,-7.028 8.57788,-9.3089 2.8235,-4.0743 2.845,-4.2078 1.22498,-7.6051 -1.11556,-2.3393 -2.33535,-3.4579 -3.77081,-3.4579 -8.32139,0 -26.97015,-8.147 -36.82345,-16.0869 -7.15224,-5.7633 -6.76017,-5.8971 -11.62285,3.9656 -2.64113,5.3569 -2.64468,5.3954 -0.87315,9.5 4.88065,11.3083 14.92023,23.1845 25.00629,29.5809 l 4.71721,2.9916 3.92998,-2.2088 c 2.16149,-1.2148 6.49676,-4.5316 9.63392,-7.3705 z m 100.95889,13.1182 c 0.18555,-0.1823 -0.14617,-2.7297 -0.73716,-5.6608 -1.69327,-8.3981 -4.1002,-29.6775 -4.1002,-36.2494 0,-6.6223 -1.13406,-6.5054 -2.78516,0.2869 -0.80625,3.3168 -0.72342,5.9619 0.34447,11 1.55568,7.3396 1.81204,21.2607 0.51511,27.9724 l -0.83848,4.3391 3.63203,-0.6783 c 1.99762,-0.3731 3.78384,-0.8275 3.96939,-1.0099 z m -160.61236,-0.7401 c -1.36322,-6.111 -0.7211,-27.8983 1.00473,-34.0908 1.4473,-5.193 1.4713,-6.5793 0.21641,-12.5 -1.8793,-8.8667 -1.81142,-21.3057 0.16992,-31.1389 1.48807,-7.3851 1.48807,-8.6555 0,-16.040604 -1.73492,-8.6102 -2.05048,-21.7808 -0.69048,-28.818905 l 0.83848,-4.3391 -3.62441,0.6799 c -4.69046,0.88 -5.402,1.3723 -4.68466,3.2417 0.32523,0.8475 1.55042,8.564505 2.72263,17.148805 3.1426,23.013904 3.07049,64.027404 -0.15228,86.607904 -3.03279,21.2495 -3.03219,20.7384 -0.0253,21.5914 4.655,1.3206 4.99934,1.1298 4.225,-2.3414 z m 140.7399,0.5 c 0.58241,-2.0625 1.347,-7.125 1.6991,-11.25 l 0.64018,-7.5 -4.01681,5.0494 c -2.20925,2.7772 -6.608,7.359 -9.775,10.1817 l -5.75818,5.1322 3.8729,0.6502 c 2.1301,0.3577 4.32291,0.8029 4.87291,0.9894 0.55,0.1866 2.44135,0.3747 4.203,0.4182 2.8701,0.071 3.31305,-0.3108 4.2619,-3.6711 z m -52.39856,3.6537 c 3.26351,-0.603 6.27498,-1.3069 6.69215,-1.5643 0.41718,-0.2573 -1.42992,-2.1978 -4.10465,-4.312 -2.67473,-2.1143 -6.58083,-6.0229 -8.68021,-8.6858 l -3.81706,-4.8416 -8.87108,8.8739 c -4.87909,4.8806 -8.72945,9.0155 -8.55636,9.1886 0.75601,0.756 10.74883,2.2234 15.83721,2.3257 3.06149,0.061 8.23649,-0.3815 11.5,-0.9845 z m -62.89825,-0.01 c 3.48255,-0.6064 6.33191,-1.3321 6.33191,-1.6127 0,-0.2805 -3.07885,-3.3606 -6.84189,-6.8446 -3.76304,-3.484 -8.56284,-8.8332 -10.66622,-11.8873 -2.10338,-3.054 -4.03694,-5.5527 -4.29681,-5.5527 -0.8576,0 0.56157,17.4057 1.81415,22.25 1.12728,4.3597 1.47877,4.75 4.27757,4.75 1.67716,0 5.89873,-0.4962 9.38129,-1.1027 z m 64.12407,46.5164 c 18.32848,-3.7721 30.78857,-12.3154 41.89581,-28.7261 l 4.18796,-6.1876 -7.58825,-1.2887 c -4.17354,-0.7088 -10.05273,-2.1208 -13.06487,-3.1377 -5.29426,-1.7873 -5.61389,-1.7886 -9.59971,-0.04 -14.46614,6.346 -40.62337,6.3744 -55.1231,0.06 -3.80335,-1.6564 -4.19665,-1.6562 -8,0 -4.35415,1.8999 -17.84286,4.9032 -22.02183,4.9032 l -2.60614,0 2.29717,4.0873 c 3.6453,6.4859 12.32523,15.4282 19.61696,20.21 15.6892,10.2885 32.573,13.7042 50.006,10.1164 z m 144.24002,17.3363 c -12.87265,-24.9602 -21.39824,-52.5513 -25.36936,-82.1022 l -1.18958,-8.8522 -3.85697,5.6001 c -5.13448,7.455 -15.0821,16.6298 -23.0995,21.3049 -7.44203,4.3396 -7.22447,2.9481 -2.86099,18.2994 5.45566,19.1937 14.00655,39.1808 22.54904,52.7069 l 3.97446,6.2931 18.34314,0 18.34314,0 -6.83338,-13.25 z m -50,0 c -3.75837,-7.2875 -8.66195,-18.2 -10.89686,-24.25 -4.17803,-11.3101 -9.13532,-27.6503 -9.13532,-30.1119 0,-1.6454 -0.65701,-1.6457 -8.5,0 -5.06778,1.0613 -6.2182,1.7116 -7.40437,4.1858 -0.77241,1.611 -1.6993,3.1542 -2.05977,3.4292 -0.36046,0.275 -3.15951,4.3281 -6.2201,9.0069 -6.10733,9.3365 -11.80418,15.0915 -20.35136,20.559 -30.57404,19.558 -70.42543,15.6897 -96.71695,-9.3882 -6.08622,-5.8053 -13.64368,-16.2918 -16.2683,-22.5734 -1.08946,-2.6074 -2.12458,-3.6076 -3.74257,-3.6162 -1.23012,-0.01 -4.59908,-0.6408 -7.48658,-1.4095 -4.25138,-1.1317 -5.25,-1.1508 -5.25,-0.1 0,2.3817 -5.02371,18.8911 -9.13532,30.0214 -2.23491,6.05 -7.13849,16.9625 -10.89686,24.25 l -6.83338,13.2469 113.86556,0 113.86556,0 -6.83338,-13.25 z m -230.237,6.9569 c 8.56398,-13.5601 17.16183,-33.6735 22.53056,-52.7069 4.22574,-14.9812 4.65894,-13.0257 -4.15758,-18.7681 -8.30252,-5.4078 -18.65529,-15.687 -22.39528,-22.2363 -1.25008,-2.1891 -2.54824,-3.9837 -2.88479,-3.9879 -0.33654,0 -0.9172,2.9722 -1.29035,6.6143 -2.68388,26.1963 -12.68767,59.0329 -25.62992,84.128 l -6.83338,13.25 18.34314,0 18.34314,0 3.97446,-6.2931 z m 96.37414,17.2931 c -148.34592,-0.4901 -151.35867,-0.5383 -152.75,-2.4411 -2.07021,-2.8313 -1.86771,-3.4991 3.05623,-10.0786 12.48708,-16.6855 24.93161,-48.4034 30.98791,-78.9803 4.25219,-21.4684 5.66188,-37.2173 5.68391,-63.5 0.0478,-57.061009 -11.84113,-104.337409 -35.40862,-140.802309 -5.3569,-8.2885 -5.89059,-9.569 -4.89688,-11.75 0.61339,-1.3462 1.5749,-2.4632 2.13669,-2.4822 0.56179,-0.019 12.94644,-0.034 27.52144,-0.034 339.63617,0 327.35387,-0.077 329.49997,2.069 1.1,1.1 2,2.5714 2,3.2697 0,0.6983 -2.014,3.9608 -4.4755,7.25 -15.2473,20.3737001 -28.20761,57.2629 -34.19045,97.317005 -2.28545,15.3007 -2.69366,66.117104 -0.67208,83.663304 4.6665,40.5027 16.04079,75.1348 33.59931,102.3023 5.35692,8.2885 5.89062,9.569 4.89692,11.75 -0.6134,1.3462 -1.4624,2.4627 -1.8867,2.4811 -8.74321,0.3789 -84.01584,0.3667 -205.10215,-0.033 z"
       id="path5889"
       style="fill:#000000;fill-opacity:1;stroke:none;display:inline" />
  </g>
</svg>
