<?xml version="1.0" encoding="UTF-8" standalone="no"?>
<!-- Created with Inkscape (http://www.inkscape.org/) -->

<svg
   xmlns:dc="http://purl.org/dc/elements/1.1/"
   xmlns:cc="http://creativecommons.org/ns#"
   xmlns:rdf="http://www.w3.org/1999/02/22-rdf-syntax-ns#"
   xmlns:svg="http://www.w3.org/2000/svg"
   xmlns="http://www.w3.org/2000/svg"
   version="1.1"
   width="500.0354"
   height="260.12125"
   id="svg8906">
  <defs
     id="defs8908" />
  <metadata
     id="metadata8911">
    <rdf:RDF>
      <cc:Work
         rdf:about="">
        <dc:format>image/svg+xml</dc:format>
        <dc:type
           rdf:resource="http://purl.org/dc/dcmitype/StillImage" />
        <dc:title></dc:title>
      </cc:Work>
    </rdf:RDF>
  </metadata>
  <g
     transform="translate(-45.01731,29.529751)"
     id="layer1">
    <path
       d="m 300.39661,59.210449 c 0.2827,-0.9625 0.8138,-3.55 1.1801,-5.75 0.3663,-2.2 2.0093,-8.5 3.6512,-14 1.6418,-5.5 3.2192,-10.9 3.5052,-12 0.7169,-2.757 12.34,-26.88219964 13.2491,-27.49999964 0.4046,-0.275 1.2689,-1.51249996 1.9206,-2.74999996 1.6018,-3.0418 0.4053,-5.0109 -6.0893,-10.0215004 -16.2816,-12.5612 -30.2652,-12.3564 -46.4922,0.6809 -6.5731,5.2811004 -7.2026,7.1730004 -3.9625,11.90850036 3.4813,5.08790004 10.6303,19.34609964 10.6458,21.23209964 0.01,0.8525 0.3883,1.9775 0.8474,2.5 0.925,1.0527 3.2385,7.5403 5.153,14.45 0.6858,2.475 1.8691,6.4927 2.6296,8.9281 0.7605,2.4355 1.3888,5.5855 1.3964,7 0.033,6.2241 0.8165,7.0719 6.5355,7.0719 4.2004,0 5.4239,-0.3673 5.8301,-1.75 z m 176.64021,-6 c 22.8308,-22.9625 43.96339,-44.3374996 46.9614,-47.4999996 l 5.4508,-5.75000004 -94.9619,0 -94.9619,0 47.4921,47.49999964 c 26.1207,26.125 47.7209,47.5 48.00049,47.5 0.27961,0 19.1882,-18.7875 42.01901,-41.75 z m -274.51951,-6.25 47.9922,-47.9999996 -95.9922,0 -95.9922,0 47.9922,47.9999996 c 26.3957,26.4 47.9957,48 48,48 0,0 21.6043,-21.6 48,-48 z m 111.37081,78.007901 c 2.77769,-2.1957 5.5855,-5.0082 6.2395,-6.25 0.654,-1.2419 1.6017,-2.528 2.1059,-2.858 0.5042,-0.3301 1.0427,-1.2301 1.1966,-2 0.154,-0.77 0.799,-2.6667 1.4335,-4.215 1.4936,-3.6445 1.486,-14.752501 -0.013,-18.369801 -0.6414,-1.5483 -1.2039,-3.1343 -1.25,-3.5245 -0.1025,-0.8677 -2.3408,-4.1582 -5.2725,-7.7513 -2.6972,-3.3056 -10.1291,-8.5548 -10.9499,-7.734 -1.0336,1.0335 -2.1725,8.7704 -2.9022,19.7154 -0.6305,9.457601 0.8504,34.053101 2.1799,36.204401 0.8588,1.3895 2.1052,0.835 7.2317,-3.2172 z m -30.5434,-1.8662 c 1.6843,-16.1143 1.859,-25.797301 0.6858,-38.004201 -0.6944,-7.2256 -1.6161,-13.1375 -2.0481,-13.1375 -1.4761,0 -10.8838,7.9794 -12.0754,10.2421 -0.654,1.2418 -1.6017,2.5279 -2.1059,2.858 -0.5042,0.3301 -1.0427,1.2301 -1.1966,2 -0.154,0.7699 -0.799,2.6667 -1.4335,4.215 -0.6346,1.5483 -1.1537,5.6815 -1.1537,9.184901 0,3.5034 0.5191,7.6366 1.1537,9.1849 0.6345,1.5483 1.2795,3.445 1.4335,4.215 0.1539,0.7699 0.6924,1.6699 1.1966,2 0.5042,0.33 1.4519,1.6161 2.1059,2.858 1.1838,2.2478 10.5952,10.2421 12.0576,10.2421 0.4223,0 1.0433,-2.6362 1.3801,-5.8583 z m 14.9035,4.1083 c -0.9963,-6.4746 -0.9275,-47.597001 0.09,-53.561001 l 0.8204,-4.8109 -4.3204,0.3109 c -3.6378,0.2619 -4.2866,0.627 -4.1063,2.311 2.1327,19.9178 2.4345,25.6896 1.892,36.176301 -0.3464,6.6969 -1.0719,14.5067 -1.6121,17.3551 -0.5401,2.8483 -0.7332,5.5815 -0.429,6.0737 0.3042,0.4922 2.3179,0.8949 4.4749,0.8949 l 3.9218,0 -0.7308,-4.75 z m 92.0557,-66.479101 c -21.8426,-21.8223 -39.8093,-39.5815 -39.92601,-39.4648 -0.11669,0.1167 1.10841,4.2161 2.72251,9.1098 1.6141,4.8938 3.1283,9.8397 3.36489,10.9909 0.2366,1.1513 1.3164,6.3682 2.39941,11.5932 7.365,35.5312 6.7382,63.424701 -2.39311,106.500001 -0.40039,1.8886 -4.42439,14.6638 -5.98469,19 -0.3959,1.1 17.3367,-16.0118 39.4056,-38.0261 l 40.12529,-40.0261 -39.71389,-39.676901 z M 240.04111,179.00505 c -1.1529,-2.1543 -5.6993,-15.871 -6.4781,-19.5446 -5.2286,-24.665 -7.5457,-42.7825 -7.5457,-59 0,-12.570801 2.2919,-33.699001 5.1526,-47.500001 1.083,-5.225 2.1628,-10.4419 2.3994,-11.5932 0.4603,-2.2392 5.6457,-17.7583 6.8951,-20.6356 0.4128,-0.9508 -17.508,16.5992 -39.8241,39 l -40.5747,40.728801 25.923,26 c 14.2576,14.3 32.3593,32.5383 40.2258,40.5296 7.8666,7.9912 14.4519,14.4423 14.6339,14.3356 0.1821,-0.1067 -0.1811,-1.1509 -0.8072,-2.3206 z m 27.311,5.8886 c 5.9753,-12.4608 13.6652,-37.717 13.6652,-44.8813 0,-2.2638 -0.7203,-3.1658 -3.6307,-4.5469 -5.8247,-2.764 -14.8836,-12.307 -18.041,-19.005 -2.51589,-5.3372 -2.8283,-7.1047 -2.8283,-16 0,-8.895301 0.3124,-10.662801 2.8283,-16.000001 3.262,-6.92 12.5977,-16.6074 18.4462,-19.1412 3.8244,-1.6568 3.8278,-1.6635 3.1443,-6.2587 -1.607,-10.8052 -6.3233,-27.3671 -10.5274,-36.9682 -6.9749,-15.9290996 -9.9736,-20.7235996 -11.9403,-19.0912996 -4.2098,3.4938 -16.4577,35.1608996 -19.3229,49.9593996 -4.3114,22.2686 -5.7542,43.3104 -4.2295,61.680801 1.9492,23.4843 3.409,31.6692 8.7959,49.3192 3.4324,11.2459 9.4768,25.2385 13.6572,31.6157 l 2.0933,3.1935 2.1306,-3.1546 c 1.1718,-1.735 3.7634,-6.5597 5.7591,-10.7214 z m 70.6517,1.4915 c 12.97211,-26.8353 19.85481,-67.0931 17.1148,-100.105501 -1.94549,-23.4392 -3.40159,-31.6179 -8.7806,-49.3192 -4.2363,-13.9408 -15.14,-36.83489964 -16.6345,-34.9269996 -0.184,0.2348 -1.6604,2.677 -3.281,5.427 -2.6265,4.4570996 -3.8828,7.1150996 -9.0519,19.1510996 -0.7443,1.7331 -1.3533,3.8441 -1.3533,4.691 0,0.8469 -0.3981,1.7859 -0.8847,2.0866 -0.4866,0.3008 -1.1266,1.7898 -1.4223,3.3091 -0.2957,1.5192 -1.4217,5.9122 -2.5022,9.7622 -1.0805,3.85 -2.2418,9.2558 -2.5807,12.0128 l -0.6161,5.0128 4.03,1.7459 c 6.0279,2.6115 15.3419,12.2156 18.6477,19.2285 2.5159,5.3372 2.8283,7.1047 2.8283,16.000001 0,8.8953 -0.3124,10.6628 -2.8283,16 -4.1305,8.7623 -16.8524,20.5 -22.219,20.5 -1.2672,0 -1.0902,1.3874 1.6579,13 0.5857,2.475 1.2712,5.625 1.5233,7 0.4944,2.6962 2.1595,8.2745 3.4327,11.5 0.4342,1.1 2.0008,5.15 3.4814,9 3.0485,7.927 5.6381,13.2451 9.1933,18.8801 l 2.448,3.8801 1.9469,-2.8801 c 1.0707,-1.5841 3.7034,-6.514 5.8503,-10.9554 z m 145.2622,-32.6734 -48.24869,-48.2487 -48.2487,48.2487 -48.2487,48.2487 96.4974,0 96.49739,0 -48.2487,-48.2487 z m -267.9942,46.9974 33.7544,-0.2487 -47.25829,-47.25 -47.25841,-47.25 -47.7426,47.75 -47.7425,47.75 61.2464,-0.2513 c 33.6856,-0.1382 76.43601,-0.3632 95.00101,-0.5 z m 93.3611,18.7927 c 3.7864,-1.9022 9.0789,-5.483 11.7611,-7.9573 l 4.8768,-4.4988 -2.6347,-4.2926 c -2.357,-3.8402 -10.4964,-20.1281 -12.6393,-25.2927 -1.1159,-2.6894 -4.9161,-14.5029 -5.4687,-17 -0.2434,-1.1 -0.885,-3.8 -1.4257,-6 -0.5408,-2.2 -1.501,-6.3625 -2.1339,-9.25 l -1.1507,-5.25 -5.2933,0 c -5.661,0 -6.5072,0.7469 -6.5072,5.7439 0,1.4192 -0.7326,5.0949 -1.628,8.1682 -4.5985,15.783 -5.6163,18.9837 -7.5011,23.5879 -3.5269,8.6154 -8.0818,17.797 -11.5552,23.2923 l -3.345,5.2924 5.1902,4.9763 c 2.8546,2.7369 8.3216,6.5429 12.149,8.4576 5.879,2.9412 8.0033,3.4814 13.6901,3.4814 5.6839,0 7.8025,-0.5382 13.6156,-3.4586 z m -23.0983,10.3892 c -2.1905,-0.5478 -4.418,-1.4313 -4.95,-1.9633 -0.532,-0.532 -1.7773,-0.9673 -2.7673,-0.9673 -0.99,0 -1.8,-0.3402 -1.8,-0.7559 0,-0.4157 -1.3341,-1.3464 -2.9647,-2.0682 -1.6305,-0.7217 -6.121,-4.4375 -9.9789,-8.2573 l -7.0142,-6.945 -104.6954,0.04 c -107.5508,0.041 -106.2773,0.084 -106.3315,-3.5362 -0.01,-0.5623 23.3847,-24.4066 51.9847,-52.9873 l 52,-51.9649 -52,-52.035001 c -28.6,-28.6192 -52,-52.5552996 -52,-53.1912996 0,-0.6359 0.7071,-1.8634 1.5714,-2.7277 1.4085,-1.4085 12.396,-1.5714 105.9753,-1.5714 l 104.4039,0 6.6186,-6.4578004 c 3.6402,-3.5518 7.9264,-7.0366 9.5247,-7.7441 1.5984,-0.7075 2.9061,-1.6265 2.9061,-2.0423 0,-0.4157 0.6059,-0.7558 1.3464,-0.7558 0.7405,0 2.878,-0.7853 4.75,-1.745 2.533,-1.2987 5.8334,-1.745 12.9036,-1.745 7.0702,0 10.37061,0.4463 12.9036,1.745 1.872,0.9597 4.0095,1.745 4.75,1.745 0.7405,0 1.3464,0.3401 1.3464,0.7558 0,0.4158 1.3341,1.3465 2.9647,2.0682 1.6305,0.7218 6.115,4.4316 9.9655,8.2441 l 7.001,6.9319004 101.78441,-0.015 c 57.90499,-0.01 102.392,-0.4 103.1937,-0.9075 1.9839,-1.2559004 4.0893,-0.2111 5.1393,2.5505 1.1191,2.9437 0.3333,5.1163 -2.1337,5.89929996 -1.0452,0.3317 -24.3713,23.17479964 -51.8357,50.76239964 l -49.9352,50.159201 52.46339,52.0257 c 28.8549,28.6141 52.4475,52.556 52.428,53.2042 -0.02,0.6482 -0.7425,1.8858 -1.6068,2.75 -1.4085,1.4085 -12.396,1.5715 -105.9753,1.5715 l -104.4039,0 -6.6186,6.4577 c -3.6402,3.5518 -7.9264,7.0366 -9.5247,7.7441 -1.5984,0.7075 -2.9061,1.6265 -2.9061,2.0423 0,0.4157 -0.6059,0.7559 -1.3464,0.7559 -0.7405,0 -2.7878,0.719 -4.5495,1.5979 -3.883,1.9371 -17.0612,2.7147 -22.5868,1.3327 z"
       id="path5515"
       style="fill:#000000;fill-opacity:1;stroke:none;display:inline" />
  </g>
</svg>
