<?xml version="1.0" encoding="utf-8"?>
<!-- Generator: Adobe Illustrator 14.0.0, SVG Export Plug-In . SVG Version: 6.00 Build 43363)  -->
<!DOCTYPE svg PUBLIC "-//W3C//DTD SVG 1.1//EN" "http://www.w3.org/Graphics/SVG/1.1/DTD/svg11.dtd">
<svg version="1.1" id="Layer_1" xmlns="http://www.w3.org/2000/svg" xmlns:xlink="http://www.w3.org/1999/xlink" x="0px" y="0px"
	 width="800px" height="800px" viewBox="0 0 800 800" enable-background="new 0 0 800 800" xml:space="preserve">
<g>
	<path fill-rule="evenodd" clip-rule="evenodd" d="M381.333,5.85c128.474-6.118,224.346,45.054,289.333,106
		c64.969,60.929,119.62,150.04,125.333,270c3.126,65.649-10.279,121.814-29.333,168.667c-37.822,93.003-103.774,160.312-190.667,204
		c-44.577,22.412-94.797,37.01-156.667,40.667c-61.527,3.637-120.706-9.402-168-28.667c-47.161-19.21-88.317-45.001-120.667-76.667
		C63.952,624.547,11.607,541.051,6,420.517c-3.05-65.561,8.728-122.039,28-168.667c19.585-47.386,43.867-85.973,76.667-120.667
		c46.457-49.141,106.497-90.236,184-112C320.518,11.924,351.946,7.25,381.333,5.85z M508.667,25.184
		c-45.164-13.029-108.936-18.874-164-11.333c-44.497,7.881-83.715,19.8-119.333,37.333c-34.853,17.157-63.787,41.234-92.667,65.333
		c-6.823,5.694-12.793,12.933-19.333,20c-19.235,20.787-35.502,44.085-50,68.667c-25.896,43.907-43.67,89.872-50.667,149.333
		c-2.493,21.184-4.027,43.601-2,68c2.732,32.874,7.656,64.46,16.667,92.667c34.698,108.611,104.095,183.738,196,232.666
		c36.073,19.205,82.11,35.192,130.667,40c32.418,3.211,79.19,3.242,110-2c89.681-15.256,163.553-58.483,216.667-114.666
		c55.33-58.528,96.065-130.913,107.333-224.667c2.554-21.249,3.82-46.178,2-68.667c-9.418-116.375-55.442-194.34-120-260
		C625.657,78.104,572.46,43.586,508.667,25.184z"/>
	<path fill-rule="evenodd" clip-rule="evenodd" d="M156.667,447.184c-14.107-78.906,10.808-145.983,42-189.333
		c10.552-14.665,21.368-28.383,34.667-40c28.367-24.779,58.907-42.822,95.333-54c27.028-8.294,66.104-13.98,103.333-9.333
		c82.087,10.246,152.13,63.75,186.667,128.667c14.308,26.894,25.134,57.254,28.666,95.333c2.549,27.467-0.88,59.645-6.666,82.667
		c-21.34,84.898-85.67,151.414-171.334,177.333C413.688,655.354,345.126,647.038,298,625.85c-5.467-2.458-10.405-5.529-16-8.666
		c-15.16-8.501-30.687-16.896-43.333-28.667C200.688,553.167,169.284,508.388,156.667,447.184z M294.667,182.517
		c-59.93,30.085-106.126,80.891-125.333,146c-1.432,4.853-5.115,13.869-6,18c-5.516,25.74-7.477,58.73-3.333,88
		c7.996,56.489,34.779,102.112,70,137.333c31.864,31.864,69.362,53.713,118,65.334c28.928,6.911,71.818,6.719,100,1.333
		c26.535-5.07,52.783-15.845,74-28.667c59.771-36.119,102.963-92.313,117.333-167.333c3.682-19.22,3.555-48.603,2.667-68
		c-0.355-7.764-2.903-17.231-4.667-26c-5.805-28.862-17.615-53.551-30.666-75.333c-27.545-45.972-74.172-83.809-126.667-102
		c-38.473-13.332-94.443-17.724-138-6.667C323.755,170.315,309.275,175.183,294.667,182.517z"/>
	<path fill-rule="evenodd" clip-rule="evenodd" d="M400,224.517c8.299-12.368,13.934-27.4,24.667-37.333
		c62.235,71.541,125.98,141.577,188,213.333c-63.879,70.122-125.098,142.9-190,212c-8.69-10.865-14.771-24.34-22.667-36
		c-6.927,12.629-13.723,25.389-22.667,36C313.32,542.753,251.6,470.691,188,400.517c62.062-71.714,125.782-141.775,188-213.333
		c0.667,0,1.333,0,2,0C385.479,199.482,393.666,211.073,400,224.517z M376,195.85c-0.008,0.881-1.168,0.609-1.333,1.333
		C317.635,261.211,258.796,328.211,202,391.85c-1.282,1.437-4.72,3.329-3.333,6c55.324-1.484,118.734-0.274,177.333-0.667
		c4.083-4.937,7.751-10.252,12-17.333c2.455-4.091,9.531-12.961,9.333-18.667c-0.051-1.458-2.247-5.719-3.333-8.667
		c-13.138-35.632-13.697-86.624,3.333-120.667C391.132,218.94,385.006,205.956,376,195.85z M424.667,196.517
		c-3.382,1.745-21.341,30.707-21.334,36c0.006,4.123,4.654,11.222,6.667,17.333c8.405,25.53,8.046,69.178,0,94.667
		c-3.089,9.784-8.391,15.471-4.667,23.333c4.862,10.265,14.498,22.582,20,30c57.265-1.211,125.038-0.97,178,0
		C544.096,330.419,485.054,262.797,424.667,196.517z M400.667,353.85c14.525-32.833,14.914-81.829-0.667-114
		C385.91,273.35,384.561,320.86,400.667,353.85z M383.333,397.85c7.423-0.836,26.486-0.935,34,0
		c-4.461-8.228-11.869-19.226-17.333-28.667C395.726,379.593,387.263,389.312,383.333,397.85z M244,455.184
		c14.41,17.061,29.218,33.459,44,50c29.65,33.178,59.097,66.742,89.333,99.333c7.304-11.584,14.827-22.95,20-36.667
		c-15.073-27.6-16.98-79.951-6.667-112c2.093-6.505,6.696-13.467,6.667-17.333c-0.039-5.12-6.858-13.422-10-18.667
		c-3.503-5.846-7.787-15.086-12.667-16.666c-4.177-1.354-13.689,0-21.333,0c-50.89,0-108.128,0-154.667,0
		C212.651,421.546,229.177,437.634,244,455.184z M400.667,431.184c5.138-9.974,11.018-19.204,17.333-28
		c-11.557,0.443-24.887-0.888-35.333,0.666C389.866,411.762,394.362,422.377,400.667,431.184z M425.333,403.184
		c-9.369,11.064-15.885,21.307-22,36c8.753,23.608,16.428,44.874,13.334,78.666c-1.084,11.831-3.274,22.991-6.667,33.334
		c-4.283,13.059-8.421,15.714-2.667,27.333c4.701,9.492,11.806,18.119,16,26c30.438-32.838,60.127-66.617,90-100
		c29.946-33.464,59.426-67.203,88.667-101.333C543.112,403.184,484.222,403.184,425.333,403.184z M400.667,560.517
		c13.563-31.96,15.938-81.45-0.667-113.333C384.897,479.921,385.54,529.368,400.667,560.517z"/>
	<path fill-rule="evenodd" clip-rule="evenodd" d="M314,288.517c0.089,2.543,0.089,12.124,0,14.667
		c-4.738-0.374-11.014,0.792-14.667-0.667c0.367-4.521-0.783-10.561,0.667-14C304.667,288.517,309.333,288.517,314,288.517z"/>
	<path fill-rule="evenodd" clip-rule="evenodd" d="M486.667,288.517c4.666,0,9.333,0,14,0c1.087,3.489,1.087,11.178,0,14.667
		c-4.667,0-9.334,0-14,0C486.578,300.64,486.578,291.06,486.667,288.517z"/>
	<path fill-rule="evenodd" clip-rule="evenodd" d="M314,497.85c0.335,2.737-0.232,9.859,0,14.667c-4.667,0-9.333,0-14,0
		c-0.662-2.36-1.348-10.607,0-14.667C304.667,497.85,309.333,497.85,314,497.85z"/>
	<path fill-rule="evenodd" clip-rule="evenodd" d="M486.667,497.85c4.666,0,9.333,0,14,0c1.087,3.489,1.087,11.178,0,14.667
		c-4.667,0-9.334,0-14,0C486.898,507.709,486.332,500.587,486.667,497.85z"/>
</g>
</svg>
