<?xml version="1.0" encoding="utf-8"?>
<!-- Generator: Adobe Illustrator 22.1.0, SVG Export Plug-In . SVG Version: 6.00 Build 0)  -->
<svg version="1.1" id="Layer_1" xmlns="http://www.w3.org/2000/svg" xmlns:xlink="http://www.w3.org/1999/xlink" x="0px" y="0px"
	 viewBox="0 0 576 576" style="enable-background:new 0 0 576 576;" xml:space="preserve">
<style type="text/css">
	.st0{fill:#FFDF00;}
</style>
<g>
	<path class="st0" d="M278.2,558.8c-7.4-1.3-14.8-2.1-22-4c-34.8-9.1-59-31.3-75.4-62.6c-2.6-5-4.7-10.4-6.8-15.8
		c28.7,38.4,66.4,60,114.8,59.8c48.3-0.1,85.9-21.8,115-59.8c-2.4,5.2-4.5,10.5-7.1,15.5c-17.8,33.5-44.1,56.3-82,64.3
		c-5.3,1.1-10.8,1.7-16.2,2.6C291.8,558.8,285,558.8,278.2,558.8z"/>
	<path class="st0" d="M299.2,18.8c6.5,1.1,13.1,1.8,19.5,3.3c32.9,7.8,57,27.4,73.9,56.1c4.3,7.2,7.6,15.1,10.9,22.9
		c-28.9-38.4-66.5-59.9-114.9-59.8c-48.3,0.1-85.9,21.8-114.9,59.9c1.1-2.7,2.1-5.5,3.3-8.2c13.8-29.9,34.6-53,65.5-65.7
		c10.5-4.3,21.4-6.9,32.6-7.9c1.2-0.1,2.4-0.5,3.6-0.7C285.8,18.8,292.5,18.8,299.2,18.8z"/>
	<path class="st0" d="M558.8,299.2c-0.9,5.4-1.5,10.9-2.6,16.2c-8,37.6-30.6,63.7-64,81.2c-4.2,2.2-8.6,3.9-12.9,5.9
		c-0.9,0.4-1.8,0.6-2.9,0.7c38.5-28.6,60.1-66.2,59.9-114.6c-0.1-48.3-21.8-85.9-59.8-115.1c5.1,2.3,10.2,4.4,15.1,7
		c28.9,15.1,50.5,37,60.9,68.4c2.8,8.5,3.8,17.5,5.7,26.3c0.3,1.2,0.5,2.4,0.7,3.6C558.8,285.8,558.8,292.5,558.8,299.2z"/>
	<path class="st0" d="M18.8,278.2c1.4-7.6,2.2-15.3,4.2-22.8c9.3-34.5,31.4-58.4,62.5-74.7c5-2.6,10.4-4.7,15.8-6.8
		c-38.4,28.7-60,66.3-59.8,114.7c0.1,48.3,21.8,85.9,60.2,114.4c-0.2,0.3-0.3,0.6-0.5,0.9c-7.7-3.9-15.7-7.4-23.1-11.9
		c-31-18.8-51-45.4-57.3-81.6c-0.7-4-1.2-8.1-1.8-12.2C18.8,291.8,18.8,285,18.8,278.2z"/>
	<path class="st0" d="M88.5,288.5c6.8-0.4,13.2-0.7,19.6-1.1c21.5-1.4,42.7-4.3,63.6-9.8c2.3-0.6,3.4-1.6,3.8-4.1
		c6.7-42.8,30-73,69.7-90.2c9-3.9,19.1-5.5,28.8-7.7c2.6-0.6,3.5-1.7,4.1-4c4.8-18.2,7.7-36.6,9.1-55.4c0.8-10.8,1.4-21.7,2-32.3
		c0.6,9.4,1.1,19.1,1.8,28.7c1.5,19.8,4.3,39.5,9.4,58.7c0.7,2.8,1.9,3.9,4.9,4.3c47.2,5.9,88.4,45.6,95.7,92.6
		c0.9,5.9,3.2,8.1,8.8,9.4c25.5,5.8,51.3,8.1,77.3,8.8c2.2,0.1,4.5,0,6.7,0.4c-8.8,0.6-17.6,1.1-26.4,1.8
		c-20.8,1.8-41.4,4.8-61.6,10.4c-2.5,0.7-3.6,1.8-3.9,4.5c-5.7,48.7-44.9,89.7-93.3,97.6c-7.4,1.2-7.4,1.2-9.3,8.8
		c-6.1,24.5-8.5,49.4-9.6,74.6c-0.1,3.1-0.3,6.2-0.5,8.3c-0.9-12.3-1.2-25.8-2.9-39c-2.2-16.2-5.6-32.2-8.4-48.3
		c-0.4-2.5-1.8-3.4-4.3-3.7c-48.4-5.7-89.6-45-97.5-93.1c-1.4-8.4-1.4-8.4-9.9-10.4c-23.4-5.6-47.2-8.1-71.2-9.1
		c-1.9-0.1-3.7-0.1-5.6-0.2C89.3,289.2,89.1,288.9,88.5,288.5z M383,288.7c-45.1-17-77.2-48.9-94.2-94.8
		c-5.3,22.5-19.3,41.1-36.1,57.9c-16.8,16.9-35.6,30.9-60.1,36.9c24.4,6,43,19.9,59.8,36.6c16.8,16.8,31,35.4,36.4,58
		C306,337.4,338,305.7,383,288.7z M271.7,190.8c-24.4,4.7-44,16.1-59.4,34.6c-11,13.2-18.1,28.2-21.2,45.8
		C230.3,256.5,256.8,230.1,271.7,190.8z M271.5,386.2c-14.7-38.8-41.3-65.2-80-79.8C196.2,344.5,231.4,380.8,271.5,386.2z
		 M386,306.2c-33.1,10-73.3,50.8-78.5,79.8C349.5,379.6,382.3,341,386,306.2z M386,270.1c-6.6-41.9-44.2-74.1-78.9-78.5
		C321.6,229.6,347.7,255.7,386,270.1z"/>
	<path class="st0" d="M333.3,280.2c-6.2,2.7-12.5,5.4-19.6,8.5c6.9,3,13.1,5.7,19.3,8.5c0,0.3,0,0.5-0.1,0.8c-6.8,0-13.7,0-21.5,0
		c5.8,5.7,10.8,10.6,15.8,15.5c-0.2,0.3-0.4,0.5-0.6,0.8c-6.4-2.5-12.9-5.1-20.2-8c2.8,7.3,5.4,13.7,7.9,20.2
		c-0.2,0.1-0.3,0.2-0.5,0.3c-4.7-5-9.5-10-14.2-15c-0.4,0.2-0.8,0.4-1.2,0.6c0,6.8,0,13.7,0,20.5c-0.4,0.1-0.7,0.1-1.1,0.2
		c-2.7-6.2-5.4-12.5-8.5-19.5c-3.1,7.1-5.9,13.4-8.6,19.7c-0.2,0-0.5-0.1-0.7-0.1c0-6.9,0-13.8,0-21.6c-5.5,5.7-10.4,10.8-15.2,15.8
		c-0.3-0.3-0.7-0.6-1-0.9c2.5-6.4,5.1-12.9,8-20.2c-7.2,2.8-13.7,5.4-20.2,7.9c-0.1-0.1-0.2-0.3-0.3-0.4c5-4.8,10-9.5,15-14.3
		c-0.2-0.4-0.4-0.8-0.6-1.3c-6.9,0-13.9,0-20.8,0c0-0.3-0.1-0.6-0.1-1c6.3-2.8,12.6-5.5,19.8-8.6c-6.9-3-13.1-5.7-19.3-8.4
		c0-0.2,0-0.5,0-0.7c6.8,0,13.6,0,21.5,0c-6-5.6-11.2-10.4-16.3-15.2c0.3-0.4,0.7-0.9,1-1.3c6.5,2.5,13,5.1,20.3,7.9
		c-2.8-7.2-5.4-13.7-7.9-20.1c0.2-0.2,0.4-0.3,0.6-0.5c4.8,5,9.6,10,14.4,15c0.4-0.2,0.8-0.4,1.2-0.6c0-6.9,0-13.7,0-20.6
		c0.3,0,0.6-0.1,0.8-0.1c2.7,6.2,5.4,12.5,8.5,19.6c3.1-7.1,5.8-13.4,8.6-19.7c0.3,0,0.5,0,0.8,0c0,6.9,0,13.8,0,20.8
		c0.3,0.1,0.6,0.2,1,0.3c4.8-5,9.5-10.1,14.3-15.1c0.3,0.2,0.6,0.4,0.9,0.7c-2.5,6.5-5.1,13-8,20.3c7.3-2.9,13.7-5.4,20.1-7.9
		c0.2,0.2,0.3,0.4,0.5,0.6c-5,4.8-10,9.6-15,14.3c0.2,0.4,0.4,0.7,0.6,1.1c6.9,0,13.8,0,20.7,0C333.3,279.6,333.3,279.9,333.3,280.2
		z M288.6,270c-10.4,0.1-18.7,8.6-18.6,19c0.1,10.2,8.5,18.5,18.7,18.5c10.4,0,18.8-8.4,18.8-18.8C307.5,278.3,299,269.9,288.6,270z
		"/>
</g>
</svg>
